<?xml version="1.0" encoding="utf-8"?>
<!-- Generator: Adobe Illustrator 25.2.1, SVG Export Plug-In . SVG Version: 6.00 Build 0)  -->
<svg version="1.1" id="Layer_1" xmlns="http://www.w3.org/2000/svg" xmlns:xlink="http://www.w3.org/1999/xlink" x="0px" y="0px"
	 viewBox="0 0 686 55" style="enable-background:new 0 0 686 55;" xml:space="preserve">
<style type="text/css">
	.st0{fill:#FFFFFF;}
</style>
<g>
	<path class="st0" d="M26.7,17.8c0,0.1,0.1,0.2,0.1,0.3c0,0.1-0.2,0.1-0.2,0.2c0-0.2-0.1-0.3-0.1-0.5C26.5,17.8,26.6,17.8,26.7,17.8
		z"/>
	<path class="st0" d="M26.4,1.9c-0.1,0-0.2-0.3-0.3-0.5c0.3,0,0.6-0.1,0.9-0.1c0.1,0,0.2,0.3,0.3,0.6C27,2,26.7,2,26.4,1.9z"/>
	<path class="st0" d="M174.3,28.3c-0.1-0.5,0.5-0.9,1.1-0.7c0.2,0.1,0.4,0.4,0.7,0.8c-0.5,0.2-0.8,0.5-1.2,0.5
		C174.8,28.9,174.4,28.5,174.3,28.3z"/>
	<path class="st0" d="M202.5,32.8c0,0,0.1,0.2,0.1,0.3c-0.4,0.1-0.7,0.2-1.1,0.3c-0.1,0-0.1-0.1-0.4-0.4c0.3-0.1,0.4-0.2,0.5-0.2
		C201.9,32.8,202.2,32.8,202.5,32.8z"/>
	<path class="st0" d="M27.5,20.2c1.2-0.3,1.2-0.3,2.6,0.4c-0.7,0.3-1.3,0.6-1.9,0.8C27.9,21,27.2,20.9,27.5,20.2z"/>
	<path class="st0" d="M27.7,22.5c-0.1,0-0.4-0.2-0.4-0.3c0.1-0.2,0.2-0.4,0.3-0.5c0.1-0.1,0.3-0.2,0.5-0.2c0,0.2,0,0.4-0.1,0.6
		C28,22.2,27.8,22.4,27.7,22.5z"/>
	<path class="st0" d="M170.5,13.1c0.2-0.1,0.7,0,0.8,0.1c0.3,0.7,0.4,1.4,0.7,2.5c-0.8-0.8-1.3-1.3-1.7-1.8
		C170.2,13.8,170.3,13.2,170.5,13.1z"/>
	<path class="st0" d="M168,24.5c0.1-0.9-0.1-1.9-0.1-2.7c-0.3-0.2-0.6-0.3-1-0.5c-0.3-1.2-0.7-2.5-1-3.7c1.5-0.5,2,1.4,3.2,1.3
		c0.2-0.4,0.5-0.7,0.7-1.1c0.5,1.4,1.5,2.8,0,4c-0.2,0.2-0.1,1.1,0.2,1.5c0.3,0.5,1,0.9,1.6,1.4c-0.4,1.9,0.1,4-0.8,6
		c-1.1,0-2.1,0.1-3.4,0.1c0.4-1.1,0.6-2.1,0.9-3c0.1-0.2,0.2-0.4,0.4-0.5c0.3-0.2,0.7-0.3,1.1-0.4C169.4,25.8,167.9,25.8,168,24.5z"
		/>
	<path class="st0" d="M25.9,8c0-0.1-0.1-0.2-0.1-0.2c0-0.1,0.1-0.1,0.2-0.2C26,7.7,26.1,7.8,26.1,8C26,8,26,8,25.9,8z"/>
	<path class="st0" d="M149.9,33.7c0-0.2,0.2-0.4,0.4-0.5c0.8-0.3,1.4-0.3,2.1,0.7c-0.8,0.1-1.5,0.2-2.2,0.2
		C150.1,34.1,149.9,33.8,149.9,33.7z"/>
	<path class="st0" d="M28.2,21.4C28.2,21.4,28.2,21.4,28.2,21.4C28.2,21.4,28.2,21.4,28.2,21.4L28.2,21.4z"/>
	<path class="st0" d="M177.2,11c0.1-1.2,0.3-2.2,0.4-3.5c-1.2,0.1-2.3,0.6-3.1,0.2c-1.3-0.6-2.5-0.5-3.9-0.3
		c-1.2,0.1-1.8-0.5-1.8-1.8c0-0.5,0.2-1,0.3-1.5c2.7,2,2.7,2,5.9,1.6c1.2-0.1,2.4-0.1,3.7-0.2c0.1,1,0.4,1.9,0.4,2.9
		c0,0.9,1.2,1.8,0.1,2.9C178.7,11.2,177.9,11.1,177.2,11z"/>
	<path class="st0" d="M155.4,20.6c-0.3-0.7,0.3-1.4,1-1.2c0.7,0.2,1.4,0.6,2.2,1c-0.4,1.5-1.3,1.5-2.1,1.3
		C156,21.6,155.6,21.1,155.4,20.6z"/>
	<polygon class="st0" points="156.6,28.7 156.7,28.4 156.8,28.6 	"/>
	<path class="st0" d="M159.5,23.8c0.3,1.6,1.3,2.5,2.9,2.7c0.1,1,0.3,1.9,0.3,2.8c0,0.8-0.3,1.5-1.5,1.7c-0.6-1.2-1.7-1.7-3.3-1.7
		c-0.2-1.4-0.3-2.6-0.4-3.8c0-0.5,0.1-1.1,0.4-1.6c0.2-0.3,0.6-0.6,1-0.7C159,23.2,159.4,23.6,159.5,23.8z"/>
	<polygon class="st0" points="206,33.2 205.9,32.9 206.2,33 	"/>
	<path class="st0" d="M29.1,24.4c-0.2-0.3-0.4-0.6-0.4-0.7c0.3-0.3,0.6-0.5,0.9-0.7c0.1,0.2,0.3,0.4,0.3,0.5
		C29.7,23.9,29.4,24.1,29.1,24.4z"/>
	<path class="st0" d="M43.8,35.4c0.2-0.1,0.4-0.3,0.5-0.2c0.2,0.1,0.4,0.4,0.6,0.5c-0.2,0.1-0.4,0.2-0.7,0.3
		C44.2,35.9,44,35.6,43.8,35.4z"/>
	<path class="st0" d="M48.7,29.2c0-0.4,0.3-0.7,0.5-1.1c0.3,0.1,0.6,0.2,0.8,0.4c0.7,0.8,0.5,1.8,0.6,2.8c-0.5-0.4-1-0.8-1.5-1.2
		C48.9,29.9,48.7,29.5,48.7,29.2z"/>
	<path class="st0" d="M193.6,11c-0.3,0.2-0.5,0.4-0.6,0.4c-0.2-0.2-0.4-0.4-0.6-0.6c0.2-0.1,0.4-0.3,0.5-0.3
		C193.2,10.6,193.4,10.8,193.6,11z"/>
	<path class="st0" d="M32,23.2c-0.9-0.1-0.8-0.9-0.8-1.6c0-0.2,0.1-0.4,0.2-0.6c0.7-0.4,1.4-0.6,2.1,0.2c0,0.3,0,0.6-0.1,1
		C33.3,22.8,32.8,23.3,32,23.2z"/>
	<path class="st0" d="M199.5,27.3c0.1-0.3,0.6-0.7,0.9-0.7c0.4,0,0.7,0.4,1,0.7c0.1,0.1,0.1,0.4,0.1,0.6c0,0.8-0.1,1.5-0.1,2.7
		c-1-0.1-1.7-0.2-2.3-0.2C199.3,29.2,199.3,28.2,199.5,27.3z"/>
	<path class="st0" d="M19.3,16.5C19.3,16.5,19.3,16.5,19.3,16.5C19.3,16.5,19.3,16.5,19.3,16.5L19.3,16.5z"/>
	<path class="st0" d="M19.3,16.5L19.3,16.5C19.3,16.5,19.3,16.5,19.3,16.5C19.3,16.5,19.3,16.5,19.3,16.5z"/>
	<path class="st0" d="M20.5,16.7c0.1,0.1-0.1,0.5-0.2,0.5c-0.3,0-0.6,0-0.8-0.2c-0.1-0.1-0.1-0.3-0.2-0.5c0.2-0.1,0.4-0.2,0.5-0.2
		C20.1,16.4,20.3,16.5,20.5,16.7z"/>
	<path class="st0" d="M50.6,31.4C50.6,31.3,50.6,31.3,50.6,31.4C50.6,31.3,50.6,31.3,50.6,31.4L50.6,31.4c1.4,0.6,2.7,0.7,4.4-0.1
		c-0.8-0.4-1.3-0.7-2.1-1.1c1-0.3,1.6-0.4,2.2-0.7c0.5-0.3,0.9-0.8,1.4-1.2c0.2,1,0.4,2.1,0.6,2.9c2.1,1,4.3,0.7,6.2,1.7
		c-0.8,1.9-1.3,2.4-2.5,2.2c-1.5-0.3-2.9-1-4.5-0.4c-0.4,0.1-1-0.3-1.5-0.5c-1-0.4-2.1-0.8-3.1-1.1c-1-0.3-2-0.5-3.3-0.8
		C49.3,31.9,49.9,31.6,50.6,31.4z"/>
	<path class="st0" d="M44.6,32.8c-0.1,0-0.2-0.1-0.2-0.2c-0.1-0.3-0.2-0.7-0.1-0.9c0.4-0.6,1.3-0.8,2-0.5c0.9,0.4,1,1.1,0.1,2.2
		C45.8,33.2,45.2,33,44.6,32.8z"/>
	<path class="st0" d="M37.9,29.4c0,0-0.2,0-0.3,0c-0.1-0.2-0.1-0.3-0.1-0.5c0.2,0,0.3,0,0.5,0.1C38,29.1,38,29.2,37.9,29.4z"/>
	<path class="st0" d="M21.8,25.2c0,0.2-0.1,0.4-0.1,0.6c-0.8,0.4-1.1-0.6-1.8-0.7c-0.1,0.3-0.2,0.5-0.2,0.8c0,0.1,0,0.2,0.1,0.3
		c0.4,0.9,1.7,1.3,1.4,2.5c-0.2,0.8-0.6,1.5-1,2.6c2.5,0.3,4.6,1,7,0.5c2.3-0.5,4.8,0.1,7.2,0.6c0.7,0.1,1.3,0.3,2,0.3
		c0.4,0,0.9-0.1,1.2-0.3c0.2-0.1,0.4-0.5,0.4-0.8c0-0.3-0.3-0.7-0.5-0.8c-0.9-0.3-1.8-0.5-3.1-0.8c0.8-0.2,1.3-0.2,1.5-0.5
		c0.2-0.2,0.5-1,0.3-1.1c-1.2-1.1-2.4-2.2-3.7-3.3c-0.2-0.1-0.6,0.1-0.9,0.2c0,0,0,0,0,0c0.2,0.1,0.4,0.1,0.5,0.2
		c0.1,0.1,0.1,0.3,0.1,0.5c-0.1-0.1-0.3-0.1-0.4-0.2c-0.1-0.1-0.1-0.3-0.1-0.5c0,0,0,0-0.1,0c0,0,0,0,0.1,0c0,0,0,0,0,0
		c-0.4,0.1-1,0.1-1.2,0.3c-0.5,0.7-0.7,1.6-1,2.4c-0.3,0.7,0.2,1.3,1,1.3c0.3,0,0.7-0.1,1-0.1c0.2,0,0.4,0.2,0.5,0.3
		C32,29.7,31.9,30,31.8,30c-1.4,0.1-2.8,0.2-4,0.3c-0.7-0.6-0.4-0.9-0.2-1.3c0.1-0.3,0.3-0.7,0.3-0.9c-0.4-1.2-0.9-2.4-1.4-3.6
		c-1.9-0.5-1.9-2.4-2.7-3.8c-0.5-0.9-1.3-1.2-1.8-0.4c-0.6,1-1.8,1.2-2.7,2C19.7,23.7,21.7,23.6,21.8,25.2z M33.5,28
		c0.1,0,0.2-0.1,0.2-0.1c0,0.1,0.1,0.2,0.1,0.2c-0.1,0-0.2,0.1-0.2,0.1C33.6,28.2,33.5,28.1,33.5,28z M24.1,26.2
		c0.1-0.4,0.2-0.9,0.8-0.8c0.1,0,0.2,0.3,0.4,0.7c-0.3,0.2-0.6,0.4-1,0.6C24.2,26.6,24.1,26.4,24.1,26.2z"/>
	<path class="st0" d="M36,25.8c-1.4-1.8-1.6-3-0.5-3.7c0.6,0.3,1.3,0.7,2.1,1C37.2,24.3,36.8,25.2,36,25.8z"/>
	<path class="st0" d="M44.5,25c0.2,0,0.3,0.1,0.5,0.2c-0.1,0.2-0.2,0.3-0.3,0.5c-0.1-0.1-0.2-0.3-0.3-0.4C44.3,25.2,44.5,25,44.5,25
		z"/>
	<path class="st0" d="M46.4,29.1c0-0.2,0.3-0.5,0.5-0.8c0.3,0.4,0.6,0.6,0.7,0.8c0,0.2-0.4,0.6-0.6,0.6
		C46.8,29.7,46.5,29.4,46.4,29.1z"/>
	<path class="st0" d="M354,18.5c0,0,0,0.2,0,0.2c-0.1,0-0.2,0.1-0.3,0.1c0-0.1,0-0.3-0.1-0.4C353.8,18.5,353.9,18.5,354,18.5z"/>
	<path class="st0" d="M13.6,10.3c-0.2,0.5-0.4,1-0.5,1.5c-0.2,0.1-0.4,0.3-0.6,0.3c-1-0.1-2.1,0-2.9-0.5c-2-1.3-4.2-1.5-6.4-1.4
		C2.1,10.3,1.3,10,0.5,9.4C0.3,9.6,0.2,9.7,0,9.8v6.4c0.9-0.3,1.8-0.1,2.5,0.3c1.6,1,3.2-0.2,4.8,0.5c0.2,0.1,0.9-0.4,0.9-0.8
		c0.2-0.7,0.1-1.5,0.2-2.4c0.5-0.1,1-0.2,1.6-0.3c-0.3,1-0.5,1.8-0.8,2.9c0.8,0.5,1.5,1.1,2.3,1.3c1.4,0.3,2.9,0.3,4.3,0.5
		c1.6,0.2,2.7-0.4,3.5-1.8c-0.6-1.9-0.3-3.9-0.4-6.1c-1,0.1-2.1-0.1-2.8,0.4C14.9,11.5,14.6,9.9,13.6,10.3z M16.5,14.6
		c0,0,0.2-0.3,0.3-0.4c0.2,0.2,0.5,0.3,0.7,0.5c-0.1,0.2-0.2,0.4-0.3,0.5C16.9,14.9,16.7,14.8,16.5,14.6z M0.8,13.2l-0.2,0L0.7,13
		L0.8,13.2z M13,15.3c-0.5-0.1-1-0.1-1.6-0.2c0.3-0.8,0.7-1.4,1.5-0.9C13.2,14.4,13.6,14.8,13,15.3z"/>
	<path class="st0" d="M28.2,21.4L28.2,21.4C28.2,21.5,28.2,21.5,28.2,21.4C28.2,21.5,28.2,21.4,28.2,21.4z"/>
	<path class="st0" d="M193.7,22c1.4,0.6,1.9,1.9,1.3,3.3c-0.4,1-0.8,1.9-1.3,2.9c0,0-0.2,0-0.7,0c-0.1-1.3-0.1-2.4-0.2-3.5
		c0-0.2-0.3-0.3-0.4-0.4c-0.5,0.3-1,0.5-1.7,0.9c-0.1-1-0.3-1.7-0.4-2.5c0-0.6,0.7-1.3,1.3-1.2C192.4,21.6,193.1,21.7,193.7,22z"/>
	<path class="st0" d="M196.2,28.1c0.2-0.4,1-1,1.9-0.2c-0.5,1.3-0.8,2.4-2.1,3c-1.2-0.2-2.3-0.3-3.5-0.5c-0.1,0-0.2-0.1-0.2-0.2
		c0-0.1,0-0.2,0.1-0.4C193.9,29.9,195.3,29.7,196.2,28.1z"/>
	<path class="st0" d="M338.3,14.9c0.1-0.1,0.2-0.2,0.3-0.3c0.1,0.1,0.1,0.1,0.2,0.2c-0.1,0.1-0.2,0.2-0.4,0.3
		C338.4,15.1,338.3,14.9,338.3,14.9z"/>
	<path class="st0" d="M188.4,20.1c0.1,0.2,0.3,0.3,0.3,0.5c-0.1,0.3-0.2,0.5-0.4,0.8c-0.1-0.3-0.2-0.5-0.2-0.8
		C188.1,20.4,188.3,20.3,188.4,20.1z"/>
	<path class="st0" d="M188.1,23.1c-0.1,0.1-0.5-0.1-0.5-0.1c-0.1-0.3-0.1-0.6,0-0.9c0.1-0.3,0.4-0.4,0.7-0.6
		c0.1,0.3,0.2,0.6,0.2,0.8C188.5,22.6,188.3,22.8,188.1,23.1z"/>
	<path class="st0" d="M189.3,11.4c0.2,0.3,0.1,0.9,0.1,1.3c-0.1,0.8-0.3,1.5-0.4,2.3c0,0.7,0.2,1.4,0.3,2.4
		c-0.9-0.1-1.5-0.1-2.1-0.2c0-0.8-0.1-1.4,0.1-1.9c0.8-2.3-0.2-4.6,0.3-6.9c0.1-0.4-0.3-1.1-0.5-1.5c-0.4-0.5-0.8-1-1.3-1.4
		c0.4-0.5,0.7-1.1,1.1-1.7c1.2,0.6,2.2,1.2,3.1,1.7c0.4,1.3-0.1,2.4-0.5,3.4C189.1,9.7,188.8,10.4,189.3,11.4z"/>
	<path class="st0" d="M39.6,23.4c0.4,0,0.9,0.1,1.3,0.2c0.1,0,0.1,0.4,0.3,0.7c-0.4,0.1-0.9,0.1-1.2,0.3c-0.4,0.2-0.6,0.5-1.2,1
		C38.5,23.6,38.5,23.5,39.6,23.4z"/>
	<path class="st0" d="M188.3,21.4C188.3,21.4,188.3,21.4,188.3,21.4C188.3,21.4,188.3,21.4,188.3,21.4
		C188.3,21.4,188.3,21.4,188.3,21.4C188.3,21.4,188.3,21.4,188.3,21.4L188.3,21.4z"/>
	<path class="st0" d="M299.2,2.8c0.1-0.1,0.1-0.1,0.2-0.2c0.1,0,0.2,0,0.3,0.1c0,0.1,0,0.2-0.1,0.3C299.5,2.9,299.3,2.9,299.2,2.8z"
		/>
	<path class="st0" d="M188.8,30.7c-0.6,0-1.2-0.1-1.9-0.2c0.3-1.3,0.6-2.3,1-3.6c1-0.2,1.9-0.4,2.7-0.5c0.4,0,0.7,0.3,1.1,0.5
		c-0.2,0.4-0.3,0.9-0.5,1c-1.1,0.4-2.1,0.7-1.7,2.2C189.5,30.2,189.1,30.7,188.8,30.7z"/>
	<path class="st0" d="M419.4,2.3c0-0.1,0.1-0.3,0.1-0.4c0.1,0,0.2,0.1,0.3,0.1c0,0.1,0,0.2,0,0.3C419.6,2.3,419.5,2.3,419.4,2.3z"/>
	<path class="st0" d="M332,24.8c-0.2,0.1-0.3,0.1-0.5,0.2c-0.1-0.1-0.2-0.1-0.3-0.1c0.1-0.1,0.2-0.3,0.4-0.4
		C331.7,24.5,331.9,24.7,332,24.8z"/>
	<path class="st0" d="M333.9,19.6c-0.1,0-0.2,0-0.3,0c0.1-0.1,0.2-0.2,0.2-0.2C333.9,19.5,333.9,19.5,333.9,19.6z"/>
	<path class="st0" d="M11.5,10.6c-0.1,0.2-0.1,0.5-0.2,0.5c-0.4,0-0.8-0.1-1.2-0.1c0,0,0-0.2,0-0.3C10.4,10.2,11.2,10.1,11.5,10.6z"
		/>
	<path class="st0" d="M354.6,5.7c-0.3-0.4-0.5-0.9-0.8-1.3c0.9-0.7,1.6-0.3,2.3-0.1c0.5,0.2,0.6,1,0.2,1.4
		C355.7,6.2,355,6.3,354.6,5.7z"/>
	<path class="st0" d="M334.7,3.8c0-0.2,0.3-0.4,0.5-0.6c0.3,0.3,0.6,0.5,0.7,0.8c0.1,0.1-0.3,0.4-0.7,0.9
		C335.1,4.4,334.8,4.1,334.7,3.8z"/>
	<path class="st0" d="M336.3,15.2c-0.9,0.3-1.8,0.1-2.5-0.8c1.1-0.3,2-0.5,2.9-0.8c0.2,0.2,0.3,0.3,0.5,0.5
		C336.8,14.5,336.6,15.1,336.3,15.2z"/>
	<path class="st0" d="M353.8,27.3c0,0.3-0.5,0.8-0.8,0.8c-0.3,0-0.9-0.3-1-0.6c-0.3-0.7-0.4-1.5-0.7-2.2c-0.4-1.1-0.4-2.1,0.3-3.1
		c0.3-0.4,0.4-1,0.7-1.5c0.4-0.8,0.8-0.8,2.3,0c-1.6,2-1.5,2-1,4.3C353.9,25.8,353.9,26.6,353.8,27.3z"/>
	<path class="st0" d="M182.8,6.4c-1.4-0.7-1.4-0.7-1.3-2.4c1.4,0.5,2.8,1,4.1,1.4C184.3,6.7,183.8,6.9,182.8,6.4z"/>
	<path class="st0" d="M180.4,18.8c0.1,0,0.2,0.1,0.3,0.1c0,0-0.1,0-0.1,0C180.5,18.9,180.4,18.8,180.4,18.8z"/>
	<path class="st0" d="M179.5,14.7c0.1,0,0.2,0,0.2,0.1c0,0.1,0,0.2-0.1,0.3C179.6,14.9,179.6,14.8,179.5,14.7z"/>
	<path class="st0" d="M180.5,29.2c0.2,0.4,0.4,0.8,0.8,1.5c-1.2,0-2.1,0-3-0.1c-0.1,0-0.3-0.2-0.4-0.4c0.6-0.3,1.2-0.6,1.8-0.9
		C179.8,29.3,180.1,29.3,180.5,29.2z"/>
	<path class="st0" d="M180.2,20.8c0.1-0.4,0.4-0.8,0.6-1.1c0.8,1.8,1.9,3.6,2.1,5.8C179.5,23.8,179.4,23.7,180.2,20.8z"/>
	<path class="st0" d="M174.8,16.9c0.1,0,0.1,0.1,0.1,0.2c-0.1,0-0.1,0.1-0.2,0.1c0-0.1-0.1-0.1-0.1-0.2
		C174.6,17,174.7,16.9,174.8,16.9z"/>
	<path class="st0" d="M180.8,19.7C180.8,19.6,180.8,19.6,180.8,19.7C180.8,19.6,180.8,19.6,180.8,19.7
		C180.8,19.6,180.8,19.6,180.8,19.7C180.8,19.6,180.8,19.6,180.8,19.7z"/>
	<path class="st0" d="M177,26.5c-0.1-0.1-0.1-0.1-0.2-0.2c-0.1-0.1-0.1-0.1-0.2-0.2c0.1,0,0.2,0.1,0.2,0.1
		C176.9,26.3,176.9,26.4,177,26.5z"/>
	<path class="st0" d="M176.4,25.9c0.1,0.1,0.1,0.1,0.2,0.2c0,0,0,0-0.1,0C176.5,26.1,176.5,26,176.4,25.9z"/>
	<path class="st0" d="M182.5,29.8c-0.2-0.6-1.1-1.6-0.3-2.1c1.3-0.8,0.8,0.9,1.3,1.2c0.5,0.3,0.9,0.7,1.7,1.2
		c-0.7,0.3-1.1,0.6-1.5,0.5C183.3,30.6,182.7,30.2,182.5,29.8z"/>
	<path class="st0" d="M185.6,5.4C185.6,5.4,185.6,5.4,185.6,5.4C185.7,5.4,185.7,5.5,185.6,5.4L185.6,5.4z"/>
	<path class="st0" d="M184,33.4c1.2-0.9,2-0.6,2.9-0.1C186.1,33.4,185.2,33.4,184,33.4z"/>
	<path class="st0" d="M175.3,23.3c0.1-0.4,0.3-0.7,0.4-1.1c0,0,0.2,0,0.3,0.1c0.1,0.3,0.2,0.6,0.3,0.8c0,0.2,0,0.3-0.1,0.4
		c-0.1,0.1-0.4,0.3-0.5,0.2C175.5,23.7,175.3,23.4,175.3,23.3z"/>
	<path class="st0" d="M185.6,5.4L185.6,5.4C185.6,5.4,185.6,5.4,185.6,5.4C185.6,5.4,185.6,5.4,185.6,5.4z"/>
	<path class="st0" d="M184.9,16.7c0,0.1-0.1,0.2-0.4,0.4c-0.2-0.2-0.3-0.3-0.3-0.4c0.1-0.5,0.1-1,0.2-1.4c0,0,0.2-0.1,0.3,0
		C185.3,15.7,185.1,16.2,184.9,16.7z"/>
	<path class="st0" d="M185.1,7.9c0,0.1,0,0.2,0,0.3c-0.1,0-0.3,0.1-0.4,0.2c0-0.1,0-0.2,0-0.3C184.8,8,185,7.9,185.1,7.9z"/>
	<path class="st0" d="M185.7,12.1c0,0.1-0.2,0.2-0.4,0.3c-0.1-0.3-0.3-0.5-0.4-0.8c0,0,0.3-0.2,0.5-0.3
		C185.6,11.6,185.7,11.8,185.7,12.1z"/>
	<path class="st0" d="M179.9,17.1c2.5-1.2,2.9-1,3.1,1.5c0,0.4-0.1,0.8-0.1,1.5c-0.8-0.2-1.4-0.4-2-0.5c0-0.2,0-0.5,0.1-0.7l0,0
		c0,0,0,0,0,0c0,0,0,0.1,0,0.1c0,0-0.1,0-0.1-0.1c0.1,0,0.1,0,0.2,0C181.4,17.8,179.9,17.9,179.9,17.1z"/>
	<path class="st0" d="M41.2,26.3c0.5,0.9,1,1.7,1.6,2.6c-1.2,1-1.2,1-1.7,2.9c-0.1,0.5-0.7,0.4-1.2,0c0-1.1-0.1-2.3-0.1-3.5
		C39.7,27.4,40.1,26.7,41.2,26.3z"/>
	<path class="st0" d="M26,10.1c0.1,0.2,0.2,0.4,0.3,0.6c-0.2-0.1-0.4-0.2-0.6-0.3C25.8,10.4,25.9,10.2,26,10.1z"/>
	<path class="st0" d="M375.6,10.2c0,0.1,0,0.2-0.1,0.3c-0.1,0-0.2,0-0.3-0.1c0-0.1,0-0.2,0.1-0.3C375.4,10.1,375.5,10.2,375.6,10.2z
		"/>
	<path class="st0" d="M358,25.7c0-0.1,0-0.2,0.1-0.3c0.1,0.2,0.1,0.3,0.1,0.4C358.1,25.8,358.1,25.8,358,25.7z"/>
	<polygon class="st0" points="209.7,46.4 209.4,46.3 209.7,46.2 	"/>
	<polygon class="st0" points="196.5,42.9 196.5,42.7 196.7,42.8 	"/>
	<path class="st0" d="M277.1,43.1c-1.1,0.3-2.3,0.4-3.4,0C274.8,42.8,275.9,42.5,277.1,43.1z"/>
	<polygon class="st0" points="283.3,42.9 283.3,42.7 283.6,42.8 	"/>
	<path class="st0" d="M227.2,44.3c0.4-0.1,0.9,0,0.9,0.8c-0.7,0.8-1.7,1.1-2.9,0.9C225.6,44.9,226.3,44.5,227.2,44.3z"/>
	<polygon class="st0" points="271.2,42 270.9,42 271,41.9 	"/>
	<path class="st0" d="M49.7,24C49.7,24,49.7,24,49.7,24C49.7,24,49.7,24,49.7,24C49.7,24,49.7,24,49.7,24C49.7,24,49.7,24,49.7,24z"
		/>
	<path class="st0" d="M220,42.5c1.5-0.8,3-0.5,4.5-0.4C221.9,43.6,221.7,43.6,220,42.5z"/>
	<path class="st0" d="M79.6,52.3c0.9-0.2,1.8-0.1,2.6-0.1c0.9,0,1.8,0.1,2.6,0c2.3-0.2,4.6-0.4,6.9-0.6c0.4,0,0.9,0.1,0.7,0.7
		c-1.6,0.4-3.2,0.7-4.8,1c-0.3,0.1-0.7,0.1-1,0c-2.4-0.7-4.5,0.2-6.6,1.3c-0.2,0-0.5,0-0.7-0.1c-0.6-0.4-1.8-0.2-1.5-1.3
		C78.1,52.8,79,52.4,79.6,52.3z"/>
	<path class="st0" d="M49.3,26.3c-0.7,0.4-1.5,0.5-2.1-0.1c-0.5-0.5-0.9-1.2-1.4-1.8c0.7-0.8,1.4-1.6,2-2.3c0.6,0.9,0.5,2.1,1.9,1.8
		c0,0.2,0.1,0.4,0.1,0.6C49.9,25.3,50,25.9,49.3,26.3z"/>
	<path class="st0" d="M95.9,52.4c-0.1,0.1-0.2,0.4-0.3,0.4c-0.1,0-0.3-0.1-0.5-0.2c0.1-0.2,0.2-0.3,0.3-0.4
		C95.6,52.2,95.7,52.3,95.9,52.4z"/>
	<path class="st0" d="M107.3,51.2c-1,1.2-2.1,2.1-3.9,2.2c-1.4-1.4-3.1-1.8-5-0.7c-0.2-0.5-0.4-0.9-0.8-1.7c3.2-0.2,5.9-0.4,8.7-0.5
		C106.7,50.5,107.2,50.4,107.3,51.2z"/>
	<path class="st0" d="M326,24.5c0,0,0.1,0.1,0.1,0.2c-0.1,0-0.1,0-0.2,0.1c0-0.1-0.1-0.1-0.1-0.2C325.9,24.6,326,24.5,326,24.5z"/>
	<path class="st0" d="M163.1,47.3c-1.2,0.7-2.2,0.8-3.5,0.3C161,46.2,161,46.2,163.1,47.3z"/>
	<path class="st0" d="M355.8,28.3c-0.1-0.1-0.2-0.1-0.4-0.2c0.1-0.1,0.1-0.1,0.2-0.2c0.1,0,0.2,0,0.2,0.1
		C355.9,28.1,355.9,28.2,355.8,28.3z"/>
	<path class="st0" d="M288,42.4c-0.2,0.2-0.4,0.5-0.6,0.6c-0.4,0.1-0.8,0-1.3,0c0-0.2-0.1-0.4-0.1-0.6c0.4-0.1,0.8-0.3,1.1-0.3
		C287.4,41.9,287.7,42.2,288,42.4z"/>
	<path class="st0" d="M339.1,5.1c0.2-0.1,0.3-0.2,0.5-0.3c0.2,0.1,0.3,0.2,0.5,0.3c-0.1,0.2-0.2,0.3-0.4,0.4
		C339.5,5.4,339.3,5.2,339.1,5.1z"/>
	<path class="st0" d="M309,29.8c-0.2,0.1-0.3,0.4-0.4,0.3c-0.2-0.1-0.4-0.3-0.6-0.4c0.2-0.1,0.4-0.2,0.5-0.2
		C308.7,29.5,308.8,29.6,309,29.8z"/>
	<path class="st0" d="M349.7,27.4c-0.1,0.2-0.3,0.4-0.5,0.3c-0.8,0-0.7-0.7-0.7-1.2c0-0.2,0-0.4,0-0.6c0.2,0.1,0.4,0.1,0.6,0.2
		C349.7,26.3,349.9,26.8,349.7,27.4z"/>
	<path class="st0" d="M343.1,26.9c0.1,0.1,0.3,0.2,0.4,0.3c-0.1,0-0.3,0.1-0.4,0.1c0,0-0.1,0.1-0.1,0.1c0,0,0,0,0,0c0,0,0,0,0,0
		c0,0-0.1,0-0.1-0.1c-0.1,0-0.3-0.1-0.4-0.1c0.1-0.1,0.3-0.2,0.4-0.3c0,0,0.1,0.1,0.1,0.1C343,27,343.1,26.9,343.1,26.9z"/>
	<polygon class="st0" points="384.2,29 384,28.9 384.2,28.8 	"/>
	<path class="st0" d="M345,9.8C345,9.8,345,9.8,345,9.8C344.8,9.8,344.8,9.8,345,9.8z"/>
	<path class="st0" d="M9.4,5.7C9.2,5,9.1,4.6,8.9,4.2C8.3,3,7.8,2.8,6.6,3.4C6.4,3.5,6.3,3.8,6.1,3.9C5.2,4.3,4.9,4,4.8,2.3
		C7.3,2,9.7,2,12.6,2.6c-0.9,0.7-1.4,1-1.8,1.4C10.3,4.5,10,5,9.4,5.7z"/>
	<path class="st0" d="M346,12.8c0,1.1,1.2,1.9,0.7,3.1c-1.3-0.1-2.5-0.3-3.7-0.4c-1.2,0.2-2.4,0.3-3.7,0.4c-0.5-1.2,0.7-2,0.7-3.1
		c0-1-0.1-2,0.8-2.8l0-0.1c0.1,0,0.2-0.1,0.2-0.1c-0.1,0-0.1,0.1-0.2,0.1c0.8,0.7,0.8,1.6,0.8,2.5c0.1,0,0.1-0.1,0.3-0.1
		c0.3,0.4,0.5,0.9,0.9,1.3c0.1,0.1,0.2,0.1,0.3,0.2c0.1-0.1,0.2-0.1,0.3-0.2c0.4-0.3,0.6-0.8,0.9-1.3c0.1,0,0.2,0.1,0.3,0.1
		c-0.1-0.9-0.1-1.8,0.8-2.5c-0.1,0-0.1-0.1-0.2-0.1c0.1,0,0.1,0,0.2,0.1l0,0.1C346,10.7,345.9,11.8,346,12.8z"/>
	<path class="st0" d="M345,22.1c0.5,0,1.1-0.1,1.6,0c0.2,0,0.3,0.5,0.5,0.7c-0.3,0.2-0.6,0.5-0.8,0.4c-0.5-0.1-0.9-0.4-1.4-0.7
		C344.9,22.4,345,22.3,345,22.1z"/>
	<path class="st0" d="M336.4,22.2c-0.1-0.1-0.1-0.3-0.1-0.5c0.2,0,0.4,0,0.5,0c-0.1,0.2-0.1,0.3-0.2,0.5
		C336.7,22.2,336.4,22.2,336.4,22.2z"/>
	<polygon class="st0" points="337.3,16.8 337,16.6 337.2,16.5 	"/>
	<path class="st0" d="M290.3,42.1c0,0.1-0.1,0.2-0.1,0.2c-0.1-0.1-0.3-0.2-0.4-0.3c0,0,0.1-0.1,0.1-0.2
		C290.1,41.9,290.2,42,290.3,42.1z"/>
	<path class="st0" d="M348.5,25.9C348.5,25.9,348.4,25.9,348.5,25.9C348.4,25.9,348.4,25.9,348.5,25.9
		C348.4,25.9,348.5,25.9,348.5,25.9C348.5,25.9,348.5,25.9,348.5,25.9z"/>
	<path class="st0" d="M344,25.1c0.1,0.1,0.2,0.1,0.3,0.2c0,0-0.1,0-0.2,0C344.1,25.3,344,25.2,344,25.1z"/>
	<path class="st0" d="M346,27.4c-0.4-0.2-0.7-0.7-1.1-1.1c-0.2-0.3-0.3-0.6-0.4-0.9c0.5-0.4,1-0.8,1.5-0.9c0-0.1,0-0.1,0.1-0.2
		c0.4-0.1,0.9-0.3,1.2-0.3c0.3,0.1,0.5,0.3,0.7,0.6c0.6,0.3,0.5,0.8,0.5,1.3c-0.5,0.2-1.1,0.3-1.4,0.6
		C346.7,26.8,346.7,27.6,346,27.4z"/>
	<path class="st0" d="M344.3,25.3c0.1,0,0.1,0,0.2,0c0,0,0,0,0,0c0,0,0,0,0,0C344.4,25.4,344.3,25.3,344.3,25.3z"/>
	<path class="st0" d="M345,9.8C345,9.8,345,9.8,345,9.8C344.8,9.7,344.9,9.7,345,9.8z"/>
	<path class="st0" d="M0,20.6L0,20.6C0,20.5,0,20.5,0,20.6L0,20.6z"/>
	<path class="st0" d="M1,21.2c-0.3-0.2-0.6-0.4-0.9-0.7c0.4,0,0.8,0,1.2-0.1C1.2,20.7,1.1,21,1,21.2z"/>
	<path class="st0" d="M0,20.6L0,20.6c0.1,0,0.1,0,0.1,0C0.1,20.6,0,20.6,0,20.6z"/>
	<path class="st0" d="M76.6,53c-0.1,0-0.2,0.1-0.3,0.1c-0.1,0-0.1-0.2-0.1-0.2c0.1,0,0.2-0.1,0.3-0.1C76.5,52.8,76.5,52.9,76.6,53z"
		/>
	<polygon class="st0" points="29.1,50.6 28.9,50.5 29,50.4 	"/>
	<path class="st0" d="M1.4,20.5c1.1,0.6,2.2,1.1,3.4,1.7c-0.4,0.8-0.4,1.6,0.1,2.6c-1.7,0.5-3.4,0.2-4.9-0.2v6.3
		c0.5,0,1.1,0.1,1.6,0.1c1.6,0,1.8-0.1,1.8-1.9c0-0.5,0.1-1.1,0.1-1.8C2.7,27,1.9,26.8,1,26.7c0.1-0.3,0.2-0.5,0.3-0.6
		c1.3-0.4,2.6-0.4,4,0.4C5.2,27.3,5,28,4.9,28.7c-0.1,0.7,0,1.3,0.1,2.1c0.6,0.2,1.2,0.5,1.6,0.4c2.3-0.6,4.6,0.1,6.9,0
		c0.8,0,1.6,0.4,2.2,0.1c0.6-0.2,1-1,1.5-1.6c0.6,0.2,0.8,1.3,1.8,0.5c0.1-1.3-0.6-2.4-1.2-3.9c-0.5,0.6-0.9,1-1.4,1.6
		c-0.4-0.7-0.7-1.2-1.1-1.9c-0.7,0.1-1.4,0.1-2.1,0.2c-0.2,0.6-0.3,1-0.4,1.4c-0.2,0-0.5,0-0.5-0.1c-0.1-0.7-0.2-1.5-0.2-2.1
		c0.4-0.2,0.6-0.4,0.8-0.4c0.4,0,0.9,0.3,1.3,0.2c0.4-0.1,0.8-0.3,1-0.6c0.3-0.4-0.4-1.1-1-1c-1.9,0.5-3.7-0.7-5.7-0.2
		c-0.4-1.1-0.7-2-1-2.6c-1.6-0.4-3-0.8-4.4-1.1C2.4,19.6,1.9,20,1.4,20.5z M9.8,25.2L10,25l0,0.2L9.8,25.2z M8.3,26.7
		c0.2-0.1,0.3-0.2,0.5-0.3c0,0.1,0.1,0.3,0.1,0.3c-0.1,0.1-0.3,0.2-0.5,0.3C8.4,26.9,8.4,26.8,8.3,26.7z"/>
	<path class="st0" d="M351.5,10.5c-0.1-0.3-0.5-0.5-0.5-0.8c-0.1-0.4,0-0.8,0-1.2c0.7,0.2,1.2,0.3,1.6,0.5c0.6-0.5,1.2-0.9,1.6-1.3
		c0.4,1.7,0.7,3.1,1,4.6C353.6,12.6,352.3,12.2,351.5,10.5z"/>
	<path class="st0" d="M355.3,12.2C355.3,12.2,355.3,12.2,355.3,12.2C355.3,12.2,355.3,12.3,355.3,12.2
		C355.3,12.3,355.3,12.3,355.3,12.2C355.3,12.3,355.3,12.2,355.3,12.2z"/>
	<path class="st0" d="M51.7,36.3c-0.2,0.1-0.3,0.1-0.5,0.2c-0.1-0.1-0.3-0.3-0.3-0.4c0-0.2,0.3-0.3,0.4-0.4
		C51.5,36,51.6,36.2,51.7,36.3z"/>
	<path class="st0" d="M2.8,5.3C2.8,5.3,2.4,5.2,2.3,5c-0.1-0.3,0-0.6,0.1-0.8C2.6,4,2.9,3.9,3.2,3.6c0.1,0.4,0.2,0.7,0.2,1
		C3.3,4.9,3.1,5.1,2.8,5.3z"/>
	<path class="st0" d="M3.9,0.1c0.9,0,1.7,0.1,2.5,0.1C5.5,0.7,4.6,1.5,3.9,0.1z"/>
	<path class="st0" d="M0,0c0.2,0,0.3,0,0.5,0.1C0.3,0.3,0.1,0.5,0,0.6V0z"/>
	<path class="st0" d="M1.4,20.5C1.4,20.5,1.4,20.5,1.4,20.5C1.4,20.5,1.3,20.5,1.4,20.5C1.3,20.5,1.3,20.5,1.4,20.5
		C1.4,20.5,1.4,20.5,1.4,20.5z"/>
	<path class="st0" d="M26.5,10.8L26.5,10.8c-0.1,0-0.1,0-0.1,0C26.4,10.8,26.4,10.8,26.5,10.8z"/>
	<path class="st0" d="M14.1,22.1c-0.2-0.4,0.1-1,0.5-0.9c0.2,0,0.3,0.2,0.5,0.4c-0.2,0.2-0.3,0.5-0.5,0.7
		C14.5,22.3,14.1,22.2,14.1,22.1z"/>
	<path class="st0" d="M16.5,24.3c0.1,0,0.3,0.1,0.4,0.1c-0.1,0.1-0.1,0.2-0.2,0.2c-0.1,0-0.2,0-0.3-0.1
		C16.5,24.4,16.5,24.3,16.5,24.3z"/>
	<path class="st0" d="M7.4,32.8c0.1-0.1,0.2-0.2,0.3-0.3c0,0.1,0,0.2,0,0.3C7.6,32.8,7.5,32.8,7.4,32.8z"/>
	<path class="st0" d="M206.4,24.6C206.3,24.6,206.3,24.6,206.4,24.6L206.4,24.6C206.3,24.6,206.3,24.6,206.4,24.6
		C206.3,24.6,206.3,24.6,206.4,24.6L206.4,24.6C206.3,24.6,206.4,24.6,206.4,24.6C206.4,24.6,206.4,24.6,206.4,24.6
		C206.4,24.6,206.4,24.6,206.4,24.6z"/>
	<path class="st0" d="M154.2,23.4C154.1,23.4,154.1,23.4,154.2,23.4C154.1,23.4,154.1,23.3,154.2,23.4
		C154.1,23.3,154.1,23.3,154.2,23.4C154.2,23.3,154.2,23.3,154.2,23.4z"/>
	<path class="st0" d="M156,25.3c-1.2-0.2-1.5-1.1-1.8-2C156.3,23.3,156.3,23.3,156,25.3z"/>
	<path class="st0" d="M209.2,28.2c-0.7,0.2-1.4,0.3-1.9,0.6c-0.5,0.4-0.9,1.2-1.3,1.8c-0.8-0.1-1.6-0.3-2.5-0.4
		c1-1.5,1.2-2.1,0.7-3.1c-0.2-0.5-0.6-0.9-0.8-1.4c-0.1-0.2,0.1-0.7,0.3-0.8c0.2-0.1,0.7-0.1,0.9,0c0.3,0.2,0.6,0.6,0.9,0.9
		c0.4-0.6,0.6-0.9,0.9-1.3C207.1,26.4,207.2,26.5,209.2,28.2z"/>
	<path class="st0" d="M197.8,5.4C197.8,5.4,197.8,5.4,197.8,5.4C197.8,5.5,197.8,5.5,197.8,5.4C197.7,5.5,197.8,5.4,197.8,5.4z"/>
	<path class="st0" d="M161.2,16.3C161.2,16.3,161.1,16.3,161.2,16.3L161.2,16.3C161.1,16.3,161.1,16.3,161.2,16.3
		C161.2,16.3,161.2,16.3,161.2,16.3C161.2,16.3,161.2,16.3,161.2,16.3z"/>
	<path class="st0" d="M196.7,21.8c-0.4-0.8-0.7-1.6-1.2-2.4c-0.3-0.4-0.8-0.8-1.3-1c-1.6-0.7-1.6-0.6-2.5-1.9c1-0.7,1.9-1.4,2.9-2.1
		c0.7,1.6,1.5,3.1,2.2,4.7C197.2,20,197.2,20.3,196.7,21.8z"/>
	<path class="st0" d="M26.5,10.8C26.5,10.8,26.5,10.8,26.5,10.8C26.5,10.9,26.4,10.9,26.5,10.8L26.5,10.8z"/>
	<path class="st0" d="M161,20.5c-0.3-1.2-0.6-2.2-0.8-3.3c0.4-0.3,0.7-0.6,1-0.9c0.7,1.1,1.4,2.2,2.2,3.4
		C162.5,20,161.8,20.2,161,20.5z"/>
	<path class="st0" d="M154.6,13.7c-0.2,0.1-0.5,0.1-0.7,0.2c0.1-0.2,0.3-0.4,0.4-0.6C154.4,13.4,154.5,13.6,154.6,13.7z"/>
	<path class="st0" d="M192.3,5.1c0.6,0.2,1.3,0.3,1.9,0.5c0.4,0.8,0.8,1.6,1.2,2.7C192.5,7.2,192.5,7.2,192.3,5.1z"/>
	<path class="st0" d="M194.3,5.6C194.2,5.6,194.2,5.6,194.3,5.6C194.2,5.6,194.2,5.6,194.3,5.6C194.2,5.6,194.3,5.6,194.3,5.6
		C194.3,5.6,194.3,5.6,194.3,5.6L194.3,5.6z"/>
	<path class="st0" d="M194.3,5.6c1.1-0.7,2.2-0.7,3.4-0.2C196.6,6.3,195.5,6.1,194.3,5.6z"/>
	<path class="st0" d="M197.8,5.4C197.8,5.4,197.7,5.5,197.8,5.4C197.7,5.5,197.7,5.5,197.8,5.4C197.7,5.4,197.8,5.4,197.8,5.4z"/>
	<path class="st0" d="M194.6,14.3C194.6,14.3,194.6,14.4,194.6,14.3C194.6,14.4,194.6,14.4,194.6,14.3
		C194.6,14.4,194.6,14.3,194.6,14.3z"/>
	<path class="st0" d="M194.6,14.3C194.6,14.3,194.6,14.3,194.6,14.3C194.6,14.3,194.6,14.3,194.6,14.3L194.6,14.3z"/>
	<path class="st0" d="M337.6,25.9C337.6,25.9,337.6,25.9,337.6,25.9C337.6,25.9,337.5,25.9,337.6,25.9
		C337.5,25.9,337.5,25.9,337.6,25.9C337.5,25.9,337.6,25.9,337.6,25.9z"/>
	<path class="st0" d="M338.3,5.3c-0.2-0.2-0.4-0.5-0.6-0.7c0,0,0,0,0,0c-0.2,0-0.6-0.3-0.6-0.5c0-0.2,0.3-0.6,0.5-0.7
		c0.2,0,0.4,0.2,1,0.6c0.3,0.2,0.6,0.4,0.5,0.8C338.9,4.9,338.7,5,338.3,5.3z"/>
	<path class="st0" d="M336.8,27.7c-0.2,0-0.4-0.2-0.5-0.3c-0.2-0.6,0-1.1,0.6-1.3c0.2-0.1,0.4-0.1,0.6-0.2c0,0.2,0,0.4,0,0.6
		C337.5,27,337.6,27.7,336.8,27.7z"/>
	<path class="st0" d="M338.9,22.8c0.2-0.2,0.3-0.7,0.5-0.7c0.5-0.1,1,0,1.6,0c0.1,0.1,0.1,0.3,0.2,0.4c-0.5,0.2-0.9,0.5-1.4,0.7
		C339.5,23.3,339.2,23,338.9,22.8z"/>
	<path class="st0" d="M338,24.6c0.2-0.3,0.4-0.5,0.7-0.6c0.4-0.1,0.8,0.2,1.2,0.3c0,0.1,0,0.1,0.1,0.2c0.5,0.2,1.1,0.5,1.5,0.9
		c-0.1,0.3-0.2,0.6-0.4,0.9c-0.3,0.4-0.6,1-1.1,1.1c-0.7,0.3-0.8-0.5-1.1-0.9c-0.3-0.3-0.9-0.4-1.4-0.6
		C337.6,25.4,337.4,24.9,338,24.6z"/>
	<path class="st0" d="M396.2,42.1c-0.1,0.1-0.3,0.2-0.4,0.3c0-0.1-0.1-0.2-0.1-0.2c0.1-0.1,0.3-0.2,0.4-0.3
		C396.1,41.9,396.2,42.1,396.2,42.1z"/>
	<path class="st0" d="M526.4,47.6c-1.2,0.5-2.3,0.5-3.4-0.3C525,46.2,525,46.2,526.4,47.6z"/>
	<polygon class="st0" points="489.5,42.9 489.3,42.8 489.5,42.7 	"/>
	<polygon class="st0" points="476.3,46.4 476.3,46.2 476.6,46.3 	"/>
	<path class="st0" d="M579.7,50.5c2.7,0.1,5.5,0.3,8.7,0.5c-0.4,0.8-0.6,1.2-0.8,1.7c-1.9-1.1-3.6-0.7-5,0.7c-1.7-0.1-2.9-1-3.9-2.2
		C578.8,50.4,579.4,50.5,579.7,50.5z"/>
	<path class="st0" d="M609.8,52.8c0,0.1-0.1,0.2-0.1,0.2c-0.1,0-0.2-0.1-0.3-0.1c0-0.1,0.1-0.2,0.1-0.2
		C609.6,52.7,609.7,52.8,609.8,52.8z"/>
	<polygon class="st0" points="657.1,50.5 656.9,50.6 657,50.4 	"/>
	<path class="st0" d="M458.8,44.3c0.9,0.2,1.6,0.6,2,1.6c-1.2,0.3-2.2-0.1-2.9-0.9C458,44.3,458.4,44.2,458.8,44.3z"/>
	<path class="st0" d="M594.2,51.6c2.3,0.2,4.6,0.4,6.9,0.6c0.9,0.1,1.8,0,2.6,0c0.9,0,1.8-0.1,2.6,0.1c0.6,0.1,1.5,0.5,1.6,0.9
		c0.3,1.1-0.9,1-1.5,1.3c-0.2,0.1-0.4,0.1-0.7,0.1c-2-1.1-4.1-2.1-6.6-1.3c-0.3,0.1-0.7,0.1-1,0c-1.6-0.3-3.2-0.7-4.8-1
		C593.3,51.7,593.8,51.5,594.2,51.6z"/>
	<path class="st0" d="M590.9,52.6c-0.2,0.1-0.3,0.2-0.5,0.2c-0.1,0-0.2-0.3-0.3-0.4c0.2-0.1,0.3-0.1,0.5-0.2
		C590.7,52.3,590.8,52.4,590.9,52.6z"/>
	<polygon class="st0" points="415.1,42 414.8,42 415,41.9 	"/>
	<path class="st0" d="M332,18.5c0.1,0,0.2,0,0.3,0c0,0.1,0,0.3-0.1,0.4c-0.1,0-0.2-0.1-0.3-0.1C332,18.7,332,18.6,332,18.5z"/>
	<path class="st0" d="M341.7,25.3c0,0-0.1,0-0.1,0.1c0,0,0,0,0,0c0,0,0,0,0,0C341.6,25.3,341.6,25.3,341.7,25.3z"/>
	<path class="st0" d="M341.9,25.3c0,0-0.1,0-0.1,0c0.1-0.1,0.2-0.1,0.3-0.2C342,25.2,341.9,25.3,341.9,25.3z"/>
	<path class="st0" d="M329.7,5.7c-0.4-0.4-0.4-1.2,0.2-1.4c0.7-0.3,1.4-0.6,2.3,0.1c-0.3,0.4-0.5,0.9-0.8,1.3
		C331,6.3,330.3,6.2,329.7,5.7z"/>
	<path class="st0" d="M333.6,20.7c0.3,0.5,0.4,1.1,0.7,1.5c0.7,1,0.8,2,0.3,3.1c-0.3,0.7-0.4,1.5-0.7,2.2c-0.1,0.3-0.7,0.6-1,0.6
		c-0.3,0-0.7-0.5-0.8-0.8c-0.1-0.8,0-1.5,0.2-2.3c0.5-2.2,0.5-2.2-1-4.3C332.8,19.9,333.1,19.9,333.6,20.7z"/>
	<path class="st0" d="M412.3,43.1c-1.2,0.4-2.3,0.3-3.4,0C410.1,42.5,411.2,42.8,412.3,43.1z"/>
	<polygon class="st0" points="402.7,42.9 402.4,42.8 402.7,42.7 	"/>
	<path class="st0" d="M266.3,2c0.1,0,0.2-0.1,0.3-0.1c0,0.1,0.1,0.3,0.1,0.4c-0.1,0-0.2,0-0.3,0C266.3,2.2,266.3,2.1,266.3,2z"/>
	<path class="st0" d="M400,42.3c0,0.2,0,0.4-0.1,0.6c-0.4,0-0.9,0.1-1.3,0c-0.2,0-0.4-0.4-0.6-0.6c0.3-0.1,0.5-0.4,0.8-0.4
		C399.2,41.9,399.6,42.1,400,42.3z"/>
	<path class="st0" d="M491.4,14.4C491.4,14.3,491.4,14.3,491.4,14.4C491.4,14.3,491.4,14.3,491.4,14.4L491.4,14.4z"/>
	<path class="st0" d="M530,25.3c-0.3-2-0.3-2,1.8-2C531.5,24.3,531.2,25.2,530,25.3z"/>
	<path class="st0" d="M531.8,23.4C531.8,23.3,531.8,23.3,531.8,23.4C531.9,23.3,531.9,23.3,531.8,23.4
		C531.9,23.3,531.9,23.4,531.8,23.4C531.9,23.4,531.9,23.4,531.8,23.4z"/>
	<path class="st0" d="M481.4,25c0.2-0.1,0.7-0.2,0.9,0c0.2,0.1,0.4,0.6,0.3,0.8c-0.2,0.5-0.6,0.9-0.8,1.4c-0.5,1-0.3,1.6,0.7,3.1
		c-0.9,0.1-1.7,0.3-2.5,0.4c-0.5-0.7-0.8-1.4-1.3-1.8c-0.4-0.4-1.2-0.4-1.9-0.6c2-1.7,2.1-1.8,2.8-3.6c0.2,0.4,0.5,0.7,0.9,1.3
		C480.8,25.5,481.1,25.2,481.4,25z"/>
	<path class="st0" d="M531.7,13.3c0.1,0.2,0.3,0.4,0.4,0.6c-0.2-0.1-0.5-0.1-0.7-0.2C531.5,13.6,531.6,13.4,531.7,13.3z"/>
	<path class="st0" d="M525,20.5c-0.8-0.2-1.5-0.4-2.4-0.7c0.8-1.3,1.5-2.4,2.2-3.4c0.3,0.3,0.7,0.6,1,0.9
		C525.6,18.3,525.3,19.3,525,20.5z"/>
	<path class="st0" d="M524.9,16.3C524.9,16.3,524.8,16.3,524.9,16.3C524.8,16.3,524.8,16.3,524.9,16.3
		C524.8,16.3,524.8,16.3,524.9,16.3C524.9,16.3,524.9,16.3,524.9,16.3L524.9,16.3z"/>
	<path class="st0" d="M479.7,24.6L479.7,24.6C479.7,24.6,479.6,24.6,479.7,24.6C479.6,24.6,479.6,24.6,479.7,24.6
		C479.6,24.6,479.6,24.6,479.7,24.6C479.6,24.6,479.7,24.6,479.7,24.6C479.7,24.6,479.7,24.6,479.7,24.6z"/>
	<path class="st0" d="M490.5,8.3c0.5-1,0.8-1.8,1.2-2.7c0.6-0.2,1.3-0.3,1.9-0.5C493.5,7.2,493.5,7.2,490.5,8.3z"/>
	<path class="st0" d="M491.8,5.6C491.8,5.6,491.8,5.6,491.8,5.6C491.7,5.6,491.7,5.6,491.8,5.6C491.7,5.6,491.7,5.6,491.8,5.6
		C491.7,5.6,491.8,5.6,491.8,5.6C491.8,5.6,491.8,5.6,491.8,5.6z"/>
	<path class="st0" d="M491.7,5.6c-1.2,0.5-2.3,0.6-3.4-0.2C489.5,4.9,490.6,4.9,491.7,5.6z"/>
	<path class="st0" d="M488.3,5.4C488.3,5.5,488.3,5.5,488.3,5.4C488.3,5.5,488.2,5.4,488.3,5.4C488.2,5.4,488.3,5.4,488.3,5.4z"/>
	<path class="st0" d="M659.6,10.8C659.6,10.9,659.5,10.9,659.6,10.8C659.5,10.8,659.5,10.8,659.6,10.8L659.6,10.8z"/>
	<path class="st0" d="M491.4,14.4C491.4,14.4,491.4,14.4,491.4,14.4C491.4,14.4,491.4,14.3,491.4,14.4
		C491.4,14.3,491.4,14.4,491.4,14.4z"/>
	<path class="st0" d="M491.8,18.4c-0.5,0.2-1,0.6-1.3,1c-0.5,0.7-0.8,1.5-1.2,2.4c-0.5-1.5-0.5-1.7-0.1-2.6c0.7-1.6,1.5-3.2,2.2-4.7
		c1,0.7,1.9,1.4,2.9,2.1C493.4,17.8,493.4,17.7,491.8,18.4z"/>
	<path class="st0" d="M685,21.2c-0.1-0.2-0.2-0.5-0.3-0.7c0.4,0,0.8,0,1.2,0.1C685.6,20.8,685.3,21,685,21.2z"/>
	<path class="st0" d="M671.9,22.1c-0.1,0.1-0.4,0.3-0.5,0.2c-0.2-0.2-0.4-0.5-0.5-0.7c0.2-0.2,0.3-0.4,0.5-0.4
		C671.8,21.1,672.1,21.7,671.9,22.1z"/>
	<path class="st0" d="M686,20.6L686,20.6C686,20.5,686,20.5,686,20.6L686,20.6z"/>
	<path class="st0" d="M686,20.6c0,0-0.1,0-0.1,0C685.9,20.5,685.9,20.5,686,20.6L686,20.6z"/>
	<path class="st0" d="M659.6,10.7C659.6,10.8,659.6,10.8,659.6,10.7L659.6,10.7C659.6,10.8,659.6,10.8,659.6,10.7z"/>
	<path class="st0" d="M648.1,29.4c-0.1-0.2-0.1-0.3-0.2-0.5c0.2,0,0.3,0,0.5-0.1c0,0.2,0,0.3-0.1,0.5
		C648.3,29.4,648.1,29.4,648.1,29.4z"/>
	<path class="st0" d="M669.2,24.6c-0.1,0-0.1-0.1-0.2-0.2c0.1,0,0.3-0.1,0.4-0.1c0,0.1,0,0.2,0,0.3
		C669.4,24.6,669.3,24.6,669.2,24.6z"/>
	<path class="st0" d="M488.3,5.5C488.2,5.5,488.2,5.5,488.3,5.5C488.2,5.4,488.2,5.4,488.3,5.5C488.2,5.4,488.3,5.5,488.3,5.5z"/>
	<path class="st0" d="M638.2,22.2c0.6,0.7,1.3,1.5,2,2.3c-0.5,0.6-0.9,1.2-1.4,1.8c-0.6,0.6-1.4,0.6-2.1,0.1
		c-0.7-0.4-0.6-1.1-0.5-1.7c0-0.2,0.1-0.4,0.1-0.6C637.7,24.3,637.7,23,638.2,22.2z"/>
	<path class="st0" d="M636.3,24C636.3,24,636.3,24,636.3,24C636.3,24,636.3,24,636.3,24C636.3,24,636.3,24,636.3,24
		C636.3,24,636.3,24,636.3,24z"/>
	<path class="st0" d="M660.3,10.5c-0.2,0.1-0.4,0.2-0.7,0.3c0.1-0.2,0.2-0.4,0.3-0.6C660.1,10.2,660.2,10.4,660.3,10.5z"/>
	<path class="st0" d="M684.7,20.5C684.7,20.5,684.6,20.5,684.7,20.5c-0.1,0-0.1,0-0.1,0C684.6,20.5,684.6,20.5,684.7,20.5
		C684.7,20.5,684.7,20.5,684.7,20.5z"/>
	<path class="st0" d="M684.4,30.9c0.5,0,1.1,0,1.6-0.1v-6.3c-1.5,0.4-3.1,0.8-4.9,0.2c0.5-0.9,0.5-1.8,0.1-2.6
		c1.1-0.5,2.2-1.1,3.4-1.7c-0.5-0.5-1-0.9-1.7-0.7c-1.4,0.3-2.7,0.7-4.4,1.1c-0.2,0.7-0.6,1.6-1,2.6c-2-0.5-3.8,0.7-5.7,0.2
		c-0.6-0.2-1.3,0.6-1,1c0.2,0.3,0.7,0.6,1,0.6c0.4,0.1,0.9-0.2,1.3-0.2c0.2,0,0.4,0.2,0.8,0.4c-0.1,0.7-0.1,1.4-0.2,2.1
		c0,0.1-0.3,0.1-0.5,0.1c-0.1-0.4-0.3-0.8-0.4-1.4c-0.7-0.1-1.4-0.1-2.1-0.2c-0.4,0.7-0.7,1.2-1.1,1.9c-0.5-0.6-0.9-1-1.4-1.6
		c-0.6,1.5-1.3,2.6-1.2,3.9c1,0.7,1.2-0.3,1.8-0.5c0.5,0.5,0.9,1.3,1.5,1.6c0.6,0.2,1.5-0.2,2.2-0.1c2.3,0.1,4.6-0.6,6.9,0
		c0.4,0.1,1-0.2,1.6-0.4c0-0.8,0.1-1.5,0.1-2.1c-0.1-0.7-0.3-1.5-0.4-2.3c1.4-0.7,2.6-0.8,4-0.4c0.1,0,0.2,0.3,0.3,0.6
		c-0.8,0.2-1.6,0.3-2.4,0.5c0,0.8,0.1,1.3,0.1,1.8C682.6,30.8,682.7,30.9,684.4,30.9z M676.2,25.2l-0.3,0l0-0.2L676.2,25.2z
		 M677.7,26.7c-0.1,0.1-0.1,0.2-0.1,0.3c-0.2-0.1-0.3-0.2-0.5-0.3c0,0,0.1-0.2,0.1-0.3C677.4,26.5,677.5,26.6,677.7,26.7z"/>
	<path class="st0" d="M678.3,32.8c0-0.1,0-0.2,0-0.3c0.1,0.1,0.2,0.2,0.3,0.3C678.5,32.8,678.4,32.8,678.3,32.8z"/>
	<path class="st0" d="M330.4,27.9c0.1,0.1,0.1,0.1,0.2,0.2c-0.1,0.1-0.3,0.1-0.4,0.2c0-0.1-0.1-0.2,0-0.3
		C330.1,28,330.3,28,330.4,27.9z"/>
	<path class="st0" d="M636.8,28.1c0.2,0.4,0.4,0.7,0.5,1.1c0,0.3-0.2,0.7-0.4,0.9c-0.5,0.4-1,0.8-1.5,1.2c0.1-0.9-0.1-2,0.6-2.8
		C636.2,28.3,636.5,28.3,636.8,28.1z"/>
	<path class="st0" d="M641.5,25c0,0,0.2,0.2,0.1,0.3c-0.1,0.2-0.2,0.3-0.3,0.4c-0.1-0.2-0.2-0.3-0.3-0.5
		C641.2,25.1,641.4,25,641.5,25z"/>
	<path class="st0" d="M638.3,29.1c0-0.3,0.4-0.5,0.7-0.8c0.2,0.3,0.6,0.6,0.5,0.8c0,0.2-0.4,0.5-0.7,0.6
		C638.7,29.7,638.3,29.3,638.3,29.1z"/>
	<path class="st0" d="M641.7,36c-0.3-0.1-0.5-0.2-0.7-0.3c0.2-0.2,0.4-0.4,0.6-0.5c0.1-0.1,0.3,0.1,0.5,0.2
		C642,35.6,641.8,35.9,641.7,36z"/>
	<path class="st0" d="M660,7.6c0.1,0.1,0.2,0.1,0.2,0.2c0,0.1-0.1,0.2-0.1,0.2c-0.1,0-0.2,0-0.3,0C659.9,7.8,660,7.7,660,7.6z"/>
	<path class="st0" d="M635.1,36.2c0,0.1-0.2,0.3-0.3,0.4c-0.2-0.1-0.3-0.1-0.5-0.2c0.1-0.2,0.3-0.4,0.4-0.6
		C634.8,35.9,635,36,635.1,36.2z"/>
	<path class="st0" d="M527.5,20.4c0.9-0.4,1.5-0.8,2.2-1c0.7-0.2,1.3,0.5,1,1.2c-0.2,0.4-0.6,1-1,1.1
		C528.8,21.9,527.9,21.9,527.5,20.4z"/>
	<path class="st0" d="M637.7,32.3c-1.3,0.3-2.3,0.5-3.3,0.8c-1.1,0.3-2.1,0.7-3.1,1.1c-0.5,0.2-1.1,0.6-1.5,0.5
		c-1.6-0.6-3,0.2-4.5,0.4c-1.2,0.2-1.7-0.3-2.5-2.2c1.9-1,4.1-0.7,6.2-1.7c0.2-0.8,0.4-1.9,0.6-2.9c0.5,0.4,0.9,0.9,1.4,1.2
		c0.5,0.3,1.2,0.4,2.2,0.7c-0.8,0.4-1.3,0.7-2.1,1.1c1.7,0.8,3,0.7,4.4,0.2c0,0,0-0.1-0.1-0.1c0,0,0,0,0.1,0c0,0,0,0,0,0.1
		C636.1,31.6,636.7,31.9,637.7,32.3z"/>
	<path class="st0" d="M641.6,32.6c0,0.1-0.1,0.2-0.2,0.2c-0.6,0.2-1.2,0.4-1.9,0.6c-0.8-1.1-0.7-1.8,0.1-2.2c0.7-0.3,1.7-0.1,2,0.5
		C641.8,31.9,641.7,32.3,641.6,32.6z"/>
	<path class="st0" d="M377,29.8c0.1-0.1,0.3-0.2,0.5-0.3c0.2,0.1,0.4,0.2,0.5,0.2c-0.2,0.2-0.3,0.4-0.6,0.4
		C377.3,30.1,377.2,29.9,377,29.8z"/>
	<polygon class="st0" points="301.8,28.8 302,28.9 301.8,29 	"/>
	<path class="st0" d="M686,44.1V33.7c-2.7,0.1-5.4,0.1-8.2,0.3c-2.5,0.1-4.9,0.4-7.1-1c-2,1.6-4.2,2-6.6,1.9c-1.2-0.1-2.4,0-3.7,0.1
		c-1.8,0.1-3.5,0.1-5.3,0.4c-1,0.1-1.7-0.4-2.6-0.4c-0.8,0-1.5,0.8-2.4,1c-2.8,0.6-5.6,1.4-8.6,1c-1.7-0.2-3.6-0.1-5.2,0.3
		c-2.6,0.7-5.2,0.6-7.7,1.6c-0.4,0.1-0.9,0.1-1.3,0c-0.4-0.1-0.7-0.5-1-0.7c0.5-0.7,2-0.6,1.2-2c-1,0.2-2.1,0.2-2.9,0.6
		c-0.6,0.3-0.9,1.2-1.4,1.7c-0.6,0.7-1.9,0.6-2.6-0.4c-0.9-1.3-2-1.2-3.2-1.3c-1.1-0.1-1.5,0.8-2,1.4c-0.1,0.1-0.4,0.2-0.9,0.4
		c-0.9-0.5-2-1.4-3.4-1.4c-1.2,0-2.4-0.3-3.6-0.3c-1.3-0.1-2.5,0.7-4.4,0.2c1.6-1.3,3-1.6,4.5-1.7c2.1-0.1,4.2-0.3,6.3-0.5
		c0.5-0.1,0.9-0.5,1.6-0.9c-0.7-1-1.2-1.7-2.1-3c-1.1,2.4-3.1,1.2-4.7,1.7c-0.5,0.2-0.8-0.5-0.7-0.9c0.3-0.5,0.7-1.1,1.2-1.5
		c0.9-0.6,1.9-1,2.8-1.5c0.4,0.2,0.7,0.5,1.2,0.8c0.5-0.3,0.9-0.6,1.4-0.9c0.5-0.3,0.9-0.5,1.4-0.7c0.4,0.7-0.2,0.9-0.4,1.2
		c-0.7,1-0.5,1.3,0.9,1.4c0.8-0.7,0.1-2.5,2.1-2.8c-0.3,2,0.3,4-1.5,5.4c-0.2,0.1-0.2,0.4-0.3,0.6c-0.3,0.6,0.3,1.5,1,1.4
		c1.4-0.2,2.5-0.7,3.1-2c-1-1.4-1.2-2.5-0.4-3.2c0.7-0.6,1.7-0.4,3.3,0.8c0.5-0.7,1-1.4,1.4-2.2c0.5-0.8,1.1-1.3,2.1-1.5
		c0.7-0.2,1.6-0.4,2.1-0.8c0.6-0.4,0.9-1.2,1.3-1.8c1.1,0.7,2.2,0.7,3.3,0.2c0.7-0.3,1.4-0.3,2.1-0.5c0-0.4,0-0.8,0.1-1.3
		c-1.2-0.3-2.2-0.7-3.3-0.8c-1-0.1-2,1-3.1-0.1c1.1-0.7,2.2-1.4,3.2-2.1c0.7,0.6,1.2,1.2,2.1,1c1-0.2,1.9-0.3,2.9-0.5
		c0.3-0.1,0.7-0.1,0.9-0.3c1.3-1.8,3.1-1.4,4.8-1.4c1.5,1.5,1.5,1.5,3,0.1c0.9-0.9,1.3-0.9,2.9-0.1c0.2,0.1,0.4,0.1,0.6,0.1
		c0.4-0.3,0.8-0.7,1.1-0.9c0.8,0.5,1.5,0.9,2,1.2c1.2-1.6,0.6-3.1,0.4-4.5c0.3-0.2,0.5-0.4,0.7-0.5c1.8-0.7,2.6-0.3,2.6,1.5
		c0,0.9-0.2,1.9,0.4,2.9c0.5-1.5,1.3-2.5,2.8-2.6c0.5,0.4,1,0.9,1.6,1.3c0.6,0.4,0.8,1.5,2,0.9c-0.7-2-0.1-3.5,1.7-4.6
		c0.2-0.1,0.3-0.3,0.4-0.5c0.1-0.2,0-0.4,0-0.8c-0.7-0.4-1.4-0.8-2-1.1c-1.2,0.5-2.2,1-3.2,1.2c-1.1,0.3-1.2-0.5-1.3-1.3
		c-1.2,1.1-2.4,2.2-4.2,1.6c-1.6-0.6-3.3-1.2-4.3-2.7c0,0,0,0-0.1,0c0,0,0,0,0,0c-0.3,0.2-0.6,0.4-0.7,0.6c-0.3,1.7-1.1,3.3-0.5,5.1
		c-1.3,1.4-3,0.8-4.4,1c-0.4,0.1-0.8-0.5-1.5-0.9c1.3-1.3,3.5,0.1,4.1-2c-0.7-0.7-1.4-1.5-2.1-2.3c1.4-2,3-2.8,5.1-1.6
		c0,0,0,0,0.1,0c0,0,0,0,0,0c0.5-0.3,1-0.5,1.3-0.9c0.9-1.3,1.9-2.5,3.8-1.9c0.1,0,0.3-0.1,0.3-0.1c0.7-1.6,1.6-1,2.7-0.4
		c0.9,0.5,1.7,0.4,2.4-0.4c0.1-0.7-1.1-1.4,0-2c1.8,0.2,1.2,2.2,2,3c2-0.6,0.8-2.5,1.6-3.4c2.1-0.6,2.2,1.4,3,2.3
		c1.3-0.4,0.8-1.4,1.1-2c0.4-0.9,1.9-0.1,2.1-1.5c-1.2-0.9-2.5-0.5-3.8-0.4c-1.8,0.2-3.5,0.7-5.3,0.8c-2.1,0-3.9,0.4-5.4,1.8
		c-0.7-0.3-1.1-0.5-1.6-0.7c-0.4,1.4-0.4,1.4-1.1,1.8c-1-4.3-1.8-5-4.5-3.9c0.3,2.4,0.1,2.7-2.2,2.9c-0.3-0.7-0.7-1.5-1-2.1
		c-2.5-1.6-4.8-0.4-7,0c-2.4,0.5-4.6,0.8-6.9,0.2c-0.9-0.2-1.8-0.1-2.5,0.6c-0.5,0.4-1,0.8-1.3,1c-1.4-0.2-2.5-0.5-3.5-0.5
		c-1.5,0-3.1,0.3-4.6,0.4c-1.1,0.1-2.2,0.2-3.3-0.1c-2.6-0.6-5.1-0.6-7.3,0.8c-3-0.9-4.5-1.1-6.6-0.6c-0.8,0.2-1.4,0.2-2.2-0.1
		c-0.7-0.3-1.5-0.3-2.3-0.3c-1.9-0.1-3.8-0.1-5.7-0.1c-1.2,0-2.5-0.3-3.3,1.1c-0.2,0.3-0.8,0.3-1.2,0.3c-1.2,0-2.5,0.1-3.7-0.1
		c-4.8-0.8-9.5-0.2-14.3,0c-1.8,0-3.5,0.2-5.3-0.1c-0.7-0.1-1.3-0.2-2-0.1c-0.6,0.1-1.2,0.4-1.9,0.6c-0.9,0.3-0.3-1.1-1.2-1.1
		c-2.1-0.2-4.1-0.5-5.7,1.3c-0.5-0.8-0.4-1.7-1.5-1.7c-1.3,0-2.7-0.2-4-0.2c-3.2-0.1-6.5-0.1-9.7-0.2c-3.2-0.1-3.6,0-6,2
		c-0.4-0.4-0.8-0.9-1.2-1.4c-0.3,0.5-0.5,0.7-0.6,1c-1.5-1.3-1.5-1.3-3.4-1.3c-0.8,0-1.7-0.1-2.3,0.2c-1.3,0.8-2.3,0.1-3.3-0.3
		c-0.6,0.6-1.1,1-1.6,1.5c-0.7,0.7-1-0.5-1.5-0.3c-1.1,2.3,0,5-1.5,7.1c-0.3,0.5,0.3,1.7,0.9,2c0.6,0.3,1.5,0.2,2.1-0.4
		c0.4-0.4,0.6-0.9,0.9-1.3c0.9,0.2,1.6,0.3,2.4,0.4c-0.3,2.1-0.3,2.2,0.6,3.5c1.4-1.6,3.3-1.9,5.5-1.6c-0.4-1-0.6-1.8-1-2.6
		c-0.4-0.8-0.3-1.5,0.1-2.2c0.3-0.6,0.7-1.3,1.5-1c0.6,0.2,1.4,0.6,1.5,1.1c0.2,1.3,0.8,2.7-0.1,4c0,0-0.1,0-0.1,0
		c0,0,0,0.1,0.1,0.1l0.1-0.1c0.1,0.5,0.5,1.2,0.3,1.5c-1.1,2-0.1,4.3-0.9,6.3c-0.2,0.4,0.2,1,0.3,1.5c0.6,0.2,1.2,0.3,1.6,0.4
		c-0.1,1.6-0.3,3.1-0.1,4.5c0.1,1.2-0.2,1.9-1,2.6c-0.2,0.1-0.2,0.5-0.3,0.9c1.6,0.5,3.1,0.5,4.4-0.4c1.3,1,2.5,2,3.7,3
		c1-1.1,1.8-1.3,1.9-0.8c0.4,1.3,1.8,0.7,2.4,1.5c-0.2,0.2-0.4,0.4-0.5,0.4c-2.4-0.2-4.8,0.6-7.3,0.3c-2.1-0.2-4.5-0.6-6.3,1.3
		c-0.3,0.3-0.9,0.3-1.2,0.2c-0.9-0.2-2,0-2.6-1.1c-0.2-0.4-1-0.6-1.5-0.6c-1.1,0.1-2.2,0.3-3.2,0.6c-1.7,0.6-3.4,0.9-4.9-0.5
		c-0.3-0.3-1-0.4-1.5-0.4c-0.4,0-0.9,0.1-1.3,0.1c-1.6-0.1-3.3,0.9-4.9-0.2c0,0-0.6,0.5-0.7,0.9c-0.1,0.2,0.1,0.6,0.2,0.9
		c-1.8,0.3-3.3,0-4.6-1.5c-0.8-0.9-2.1-0.9-3.3-0.7c-0.1,0-0.1,0.4-0.1,0.6c0.4,0.7,1.6-0.2,1.9,1c-3.9,0.8-7.8-0.1-11.7,0.1
		c-0.2,0-0.4-0.1-0.6-0.2c-1.2-0.7-2.5-0.6-3.7-0.1c-0.5-0.7-0.9-1.2-1.3-1.8c-0.6,0.1-1.1,0.1-1.7,0.3c-1.7,0.6-3.4,0.6-5.2,0.2
		c-1.5-0.3-3.1-0.4-4.6-0.4c-1.7,0-3.2,0.6-4.3,1.5c-0.9-0.4-1.8-1-2.5-0.9c-1.1,0.2-1.7-0.4-2.4-0.8c-0.1-0.1-0.2-0.3-0.3-0.4
		c0.4-0.3,1.2-0.4,0.7-1.3c-0.6,0.1-1.2,0.2-1.9,0.2c-0.4,0-0.7-0.4-1-0.6c0,0-0.1,0-0.1,0c0,0,0,0,0,0c-0.2,0.1-0.3,0.1-0.5,0.1
		c-0.1,0-0.2-0.2-0.3-0.3c0.1,0,0.2-0.1,0.3-0.1c0.2,0,0.3,0.1,0.5,0.2c0,0,0.1,0,0.1,0c0,0,0,0,0,0c1.6-0.4,3.2-0.7,4.7-1.2
		c1.7-0.5,3,0,4,1.4c0.2,0.3,0.3,0.7,0.5,0.8c1.7,0.5,3.4,0.9,5,0c-0.3-0.7-0.4-1.2-0.6-1.6c0.7-0.7,2.2-0.2,2.2-1.8
		c-2.5-0.8-4-2.3-3.7-5c0,0,0,0,0,0c0,0,0-0.1,0-0.1c-1.6-0.4-2.2-1.9-3.1-3c-0.1-0.1-0.2-0.4-0.1-0.6c0.1-0.4,0.3-0.8,0.5-1.1
		c0.4-0.3,1.2,0,1.3,0.5c0.4,1.4,0.6,2.9,1.4,4.2c0,0,0.1,0,0.1,0c0,0,0,0,0,0.1c0.5,0,1,0.1,1.5,0.2c0.4,0.1,0.8,0.4,1.1,0.4
		c0.9-0.1,1.9-0.3,2.8-0.4c0.3-0.9,0-1.6-0.9-2.2c-0.4-0.3-0.7-0.7-1.1-1.1c0,0-0.1,0-0.1,0c0,0,0,0,0-0.1c-1.1-0.5-0.7-1.8-1.3-2.5
		c-0.6-0.1-1.2-0.2-2.4-0.5c1.4-0.3,2.2-0.3,2.8-0.7c0.5-0.3,0.6-1.1,1.1-1.6c0.2-0.3,0.8-0.2,1.4-0.3c0.1,1.1,0.3,2,0.4,3.2
		c-0.7-0.5-1.1-0.8-1.5-1.1c-0.7,1.2,0.4,2.5-0.4,3.5c0,0,0,0,0,0c0,0,0,0,0.1,0.1c1.2,0.1,2.3,0.5,3.3,1.1c1.3,0.7,2.7,1.4,4.1,2.1
		c0.9-0.9,1.7-1.7,2.4-2.4c-0.3-1.9-1.7-3.4-0.6-5.4c0.6,0,1.3-0.1,1.9-0.1c0.1-0.7,0.2-1.3,0.3-2c0.8-0.1,1.5-0.2,2.3-0.3
		c-0.2-1.7-1.9-2.7-2.2-4.3c0-0.1-0.4-0.1-0.8-0.3c-0.6,1.7,0.3,4-2,5.3c0.3-3.5,1.4-6.5,1.8-9.6c-1.2-0.3-2.4-1.4-3.5,0.1
		c0.2,1.2,0.5,2.2,0.7,3.3c0,0.3-0.3,0.7-0.4,1.2c-2.4-1.8-2.3-4-1.5-6.5c-1.7,0.7-3.1,1.3-4.5,1.9c-0.7,0.3-0.7,1-0.1,1.6
		c0.2,0.2,0.5,0.4,0.8,0.7c-0.8,0.7-1.6,1.2-2.2,1.9c-0.7,0.8-1.1,1.8-1.7,2.8c-1.1-1.7-0.1-3.2-0.5-4.7c0.6-0.1,1.1-0.2,1.5-0.2
		c0.1-0.1,0.2-0.2,0.2-0.3c0.3-2.1,0.1-2.5-1.7-2.8c-1.1-0.2-2.2-0.4-3.3-0.5c-2-0.3-4-0.7-5.9,0c-0.4,0.1-1,0.3-1.3,0.1
		c-1.2-0.7-2.4-0.3-3.6-0.1c-1.1,0.1-2.2,0.2-3.3,0c-2.2-0.3-4.3-1-6.6-0.3c-0.5,0.2-1.1-0.1-1.6-0.2c-1.5-0.1-3.1-0.3-4.6-0.4
		c-2.3-0.1-4.7-0.1-7-0.2c-2,0-4-0.1-6-0.1c-1,0-2,0.2-2.6,1.1c0.1,0.7,0.2,1.3,0.2,2c0,0,0,0,0,0c0,0.2,0.1,0.3,0.1,0.4
		c0-0.1-0.1-0.2-0.1-0.3c0,0,0,0,0,0c-0.5,0.2-1,0.3-1.5,0.5c0-0.3-0.1-0.5-0.1-0.7c-0.1-2.3-0.8-2.9-2.9-3.2
		c-1.3-0.2-2.6,0.9-3.9,0.1c-0.7,0.4-1.3,0.8-2,1.3c-0.4,0.2-0.7,0.5-1.1,0.7c-0.5-0.4-0.9-0.9-1.4-0.9c-0.6,0-1.2,0.4-1.8,0.6
		c-0.8-0.6-1.5-1.4-2.8-1.3c-1.7,0.1-3.5-0.1-5.3,0.1c-1.7,0.2-3.3,0-4.7-1.1c-1,1-2.1,1.5-3.4,0.8c-0.4-0.2-0.9-0.1-1.3-0.1
		c-3,0.2-6,0.2-9.1,1c0,0.4-0.1,0.8-0.3,1.2c-0.2,0.2-0.3,0.5-0.5,0.7c-0.1,0.1-0.3,0.3-0.5,0.4c-0.2,0.1-0.3,0.3-0.5,0.5
		c-0.8-0.2-0.4-1.1-1-1.6c-0.4,0.2-0.9,0.2-1.3,0.1c0.1-0.5,0.1-1.1,0.1-1.6c-1.5-1.1-2.8-0.9-4,0.1c0,1,0,2,0.7,2.6
		c0,0.4,0.1,0.9,0.1,1.3c-0.3,0.1-0.7,0.1-1,0.1c-0.3-1-0.6-1.9-0.8-2.7c-0.4-1.4-1.3-2-2.7-1.8c-1.5,2.2-1.7,4.5-0.6,6.9
		c0.3,0.7,0.3,1.4,0.4,2.2c-0.9,0.2-1.7,0.4-2.4,0.6c0.1-0.2,0.3-0.4,0.4-0.6c-0.7-1.4-2-3-0.5-4.7c-0.6-1.1-1.2-2.1-1.8-3.2
		c-0.3,0-0.7,0-1-0.1c0-0.3,0-0.7,0.1-1c-1.6-0.4-1.7-0.4-2.1,0.3c-0.1,0.2-0.2,0.4-0.3,0.6c-0.1,0-0.2,0-0.3,0
		c-0.1,0.3-0.2,0.5-0.3,0.8c-0.8-0.8-1.3-1.4-2-2c-0.4,0.5-0.7,1-1.1,1.5c-0.5,0.1-0.8,0.2-1.2,0.3c0.2,0.3,0.5,0.5,0.7,0.5
		c-0.6,0.8-1.1,1.6-1.7,2.4c-0.2-0.6-0.4-1.2-0.6-1.9c-0.1-0.3-0.1-0.5-0.2-0.6c0,0,0,0,0.1,0.1c0.2-0.2,0.5-0.4,0.5-0.7
		c0-0.3-0.2-0.5-0.3-0.8c-0.3,0.2-0.5,0.4-0.9,0.7c-0.3-0.1-0.7-0.1-1.4-0.1c0.1-0.1,0.2-0.2,0.3-0.2c-0.2-0.3-0.4-0.6-0.8-1.1
		c-0.5,0.5-0.9,0.8-1.2,1.1c0.3,0.2,0.7,0.6,1,0.6c0.1,0,0.2,0,0.3-0.1c-0.3,0.8-0.7,1.7-1,2.6c0.3,0.8,0.8,1.6,0.8,2.4
		c0,0.8-0.6,1.6-0.9,2.4c2,0.7,3.2-0.7,4.7-1.1c0-0.3,0-0.7,0-1c0.1,0,0.3,0,0.4,0c0,0.3-0.1,0.7-0.3,1c0,0,0,0,0,0c0,0,0,0,0,0.1
		l0-0.1c0,0.2,0.1,0.5,0.1,0.8c-0.1,0.8-0.3,1.6-0.4,2.5c-0.1-0.1-0.3-0.3-0.4-0.4c-0.6-0.3-1.1-0.3-1.8,0.1
		c-0.4,0.2-0.7,0.4-0.9,0.5c0,0-0.1-0.1-0.1-0.1c-0.4-0.1-0.8,0-0.9,0.4c-0.5,0-1-0.5-2.1-1.5c-0.4-0.3-0.9-0.4-1.4-0.7
		c0,0.6-0.1,1.3-0.8,1.5c-0.4,0.2-0.8,0.3-1.2,0.5c-0.3,0.1-0.6,0.3-0.8,0.4c-0.3,0.9,0.5,1.1,0.9,1.5c0,0-0.1,0.2,0,0l0,0
		c2.2-0.2,4.3,0.5,6.6,0.5c-0.1,0.7-0.1,1.2-0.2,1.7c-1.4,0.1-2.5,0.1-3.8,0.2c-0.1,1.3,0.8,1.8,1.5,2.5c0.6-0.5,1.1-0.9,1.7-1.4
		c0.4,0.6,0.9,1,1.1,1.6c-0.1,0.2-0.1,0.3-0.1,0.6c0,0.4,0.2,0.6,0.4,0.8c0.2,1.4,0.4,2.8,0.6,4.3c-1,0.3-1.9,0.6-2.8,0.8
		c0.1,0.2,0.1,0.6,0.2,0.6c0.9,0.1,1.7,0.2,2.8,0.3c0.2,1.1,0.5,2.2,0.8,3.5c-0.5,0.3-1,0.7-1.5,1.1c0,0.6-0.1,1.1-0.1,1.7
		c-0.6,0-1.2,0.1-1.8,0.1c-0.1-0.2-0.2-0.4-0.3-0.6c-0.7-0.1-0.9,0.3-1.1,0.8c0,0,0,0-0.1,0c-0.8,0.1-1.6,0.1-2.4,0.1
		c-0.1-0.6-0.2-1.3-0.3-2c-1.2,0.3-1.1,1.2-1.4,1.9c-0.1,0-0.2,0-0.3,0c-0.5,0-0.9-0.2-1.3-0.5c0.2-0.3,0.3-0.6,0.5-0.8
		c-0.5-0.4-0.9-0.5-1.2-0.3c-0.1-0.2-0.3-0.4-0.5-0.7c-1.5,2.4-1.6,2.5-4,2.6c-1.1-0.1-2.3,0-3.4,0c-0.1,0-0.2,0-0.2,0
		c-0.1,0-0.2,0-0.2,0c-1.1,0-2.3-0.1-3.4,0c-2.4,0-2.5-0.1-4-2.6c-0.2,0.3-0.4,0.5-0.5,0.7c-0.3-0.2-0.7-0.1-1.2,0.3
		c0.2,0.3,0.3,0.6,0.5,0.8c-0.3,0.3-0.8,0.5-1.3,0.5c-0.1,0-0.2,0-0.3,0c-0.2-0.7-0.1-1.6-1.4-1.9c-0.1,0.7-0.2,1.4-0.3,2
		c-0.8,0-1.6,0.1-2.4-0.1c0,0,0,0-0.1,0c-0.2-0.4-0.4-0.9-1.1-0.8c-0.1,0.2-0.2,0.4-0.3,0.6c-0.6-0.1-1.2-0.1-1.8-0.1
		c0-0.6-0.1-1.1-0.1-1.7c-0.5-0.4-1-0.7-1.5-1.1c0.3-1.3,0.5-2.4,0.8-3.5c1.1-0.1,2-0.1,2.8-0.3c0.1,0,0.1-0.3,0.2-0.6
		c-0.9-0.3-1.8-0.5-2.8-0.8c0.2-1.5,0.4-3,0.6-4.3c0.2-0.2,0.4-0.4,0.4-0.8c0-0.2,0-0.4-0.1-0.6c0.3-0.5,0.7-1,1.1-1.6
		c0.6,0.5,1.1,0.9,1.7,1.4c0.7-0.7,1.6-1.2,1.5-2.5c-1.3,0-2.5-0.1-3.8-0.2c0-0.4-0.1-0.9-0.2-1.7c2.3,0,4.4-0.7,6.7-0.5l0,0
		c0.2,0.1,0,0,0,0c0.4-0.4,1.2-0.6,0.9-1.5c-0.2-0.1-0.5-0.3-0.8-0.4c-0.4-0.2-0.8-0.3-1.2-0.5c-0.7-0.3-0.8-0.9-0.8-1.5
		c-0.5,0.2-1,0.3-1.4,0.7c-1,1-1.5,1.4-2.1,1.5c-0.1-0.4-0.5-0.5-0.9-0.4c0,0-0.1,0.1-0.1,0.1c-0.3-0.1-0.6-0.3-0.9-0.5
		c-0.7-0.4-1.3-0.4-1.8-0.1c-0.2,0.1-0.3,0.2-0.4,0.4c-0.1-0.9-0.3-1.7-0.4-2.5c0-0.2,0.1-0.5,0.1-0.8l0,0.1c0,0,0,0,0-0.1
		c0,0,0,0,0,0c-0.2-0.3-0.3-0.7-0.3-1c0.1,0,0.3,0,0.4,0c0,0.3,0,0.7,0,1c1.5,0.4,2.8,1.9,4.7,1.1c-0.3-0.8-0.9-1.6-0.9-2.4
		c0-0.8,0.5-1.6,0.8-2.4c-0.3-0.9-0.7-1.8-1-2.6c0.1,0,0.2,0.1,0.3,0.1c0.3,0,0.7-0.4,1-0.6c-0.3-0.3-0.7-0.6-1.2-1.1
		c-0.4,0.5-0.6,0.8-0.8,1.1c0.1,0.1,0.2,0.1,0.3,0.2c-0.7,0-1.2,0-1.4,0.1c-0.3-0.3-0.6-0.5-0.9-0.7c-0.1,0.3-0.4,0.6-0.3,0.8
		c0,0.2,0.3,0.5,0.5,0.7c0,0,0,0,0.1-0.1c-0.1,0.2-0.1,0.4-0.2,0.6c-0.2,0.6-0.4,1.2-0.6,1.9c-0.6-0.8-1.2-1.6-1.7-2.4
		c0.2,0,0.4-0.2,0.7-0.5c-0.4-0.1-0.8-0.2-1.2-0.3c-0.4-0.5-0.7-1-1.1-1.5c-0.6,0.6-1.2,1.2-2,2c-0.1-0.3-0.2-0.5-0.3-0.8
		c-0.1,0-0.2,0-0.3,0c-0.1-0.2-0.2-0.4-0.3-0.6c-0.4-0.7-0.5-0.7-2.1-0.3c0.1,0.3,0.1,0.7,0.1,1c-0.3,0-0.7,0-1,0.1
		c-0.6,1.1-1.2,2.1-1.8,3.2c1.5,1.7,0.2,3.2-0.5,4.7c0.2,0.2,0.3,0.4,0.4,0.6c-0.7-0.2-1.5-0.4-2.4-0.6c0.1-0.7,0.1-1.5,0.4-2.2
		c1.1-2.4,0.9-4.7-0.6-6.9c-1.5-0.2-2.3,0.4-2.7,1.8c-0.2,0.9-0.5,1.7-0.8,2.7c-0.4,0-0.7,0-1-0.1c0-0.4,0.1-0.9,0.1-1.3
		c0.7-0.7,0.7-1.6,0.7-2.6c-1.2-1-2.5-1.2-4-0.1c0.1,0.5,0.1,1.1,0.1,1.6c-0.4,0.1-0.9,0.1-1.3-0.1c-0.6,0.5-0.2,1.4-1,1.6
		c-0.1-0.2-0.3-0.4-0.5-0.5c-0.2-0.1-0.3-0.3-0.5-0.4c-0.2-0.2-0.3-0.5-0.5-0.7c-0.2-0.4-0.3-0.8-0.3-1.2c-3.1-0.8-6.1-0.7-9.1-1
		c-0.4,0-0.9-0.1-1.3,0.1c-1.3,0.6-2.4,0.2-3.4-0.8c-1.4,1.1-3,1.3-4.7,1.1c-1.8-0.2-3.6,0-5.3-0.1c-1.4-0.1-2,0.7-2.8,1.3
		c-0.6-0.2-1.2-0.6-1.8-0.6c-0.5,0-0.9,0.6-1.4,0.9c-0.4-0.2-0.7-0.5-1.1-0.7c-0.6-0.4-1.3-0.8-2-1.3c-1.3,0.7-2.5-0.3-3.9-0.1
		c-2.1,0.3-2.8,0.9-2.9,3.2c0,0.2-0.1,0.4-0.1,0.7c-0.5-0.2-1-0.3-1.5-0.5c0,0,0,0,0,0c0,0.1-0.1,0.3-0.1,0.3c0-0.1,0-0.2,0.1-0.4
		c0,0,0,0,0,0c0.1-0.6,0.2-1.3,0.2-2c-0.7-0.9-1.6-1.1-2.6-1.1c-2,0-4,0-6,0.1c-2.3,0-4.7,0.1-7,0.2c-1.5,0.1-3.1,0.2-4.6,0.4
		c-0.6,0-1.2,0.3-1.6,0.2c-2.2-0.7-4.4-0.1-6.6,0.3c-1.1,0.2-2.2,0.2-3.3,0c-1.2-0.2-2.4-0.6-3.6,0.1c-0.3,0.2-0.9,0-1.3-0.1
		c-2-0.7-4-0.3-5.9,0c-1.1,0.2-2.2,0.4-3.3,0.5c-1.8,0.3-2,0.6-1.7,2.8c0,0.1,0.1,0.2,0.2,0.3c0.4,0.1,0.8,0.1,1.5,0.2
		c-0.4,1.4,0.6,3-0.5,4.7c-0.6-1-1.1-2-1.7-2.8c-0.6-0.7-1.4-1.2-2.2-1.9c0.3-0.2,0.5-0.4,0.8-0.7c0.6-0.6,0.6-1.3-0.1-1.6
		c-1.4-0.6-2.8-1.2-4.5-1.9c0.8,2.5,0.9,4.7-1.5,6.5c-0.2-0.5-0.5-0.8-0.4-1.2c0.1-1.1,0.4-2.1,0.7-3.3c-1-1.5-2.3-0.4-3.5-0.1
		c0.4,3.1,1.6,6.1,1.8,9.6c-2.3-1.3-1.4-3.6-2-5.3c-0.4,0.1-0.8,0.2-0.8,0.3c-0.3,1.7-2,2.6-2.2,4.3c0.7,0.1,1.5,0.2,2.3,0.3
		c0.1,0.7,0.2,1.4,0.3,2c0.6,0,1.3,0.1,1.9,0.1c1.1,1.9-0.3,3.5-0.6,5.4c0.7,0.7,1.5,1.5,2.4,2.4c1.4-0.7,2.8-1.4,4.1-2.1
		c1.1-0.6,2.1-1,3.3-1.1c0,0,0,0,0.1-0.1c0,0,0,0,0,0c-0.9-1.1,0.3-2.4-0.4-3.5c-0.4,0.3-0.8,0.6-1.5,1.1c0.2-1.2,0.3-2.1,0.4-3.2
		c0.6,0.1,1.2,0.1,1.4,0.3c0.4,0.5,0.6,1.3,1,1.6c0.6,0.4,1.4,0.4,2.8,0.7c-1.2,0.2-1.8,0.4-2.4,0.5c-0.7,0.7-0.2,2-1.3,2.5
		c0,0,0,0,0,0.1c0,0-0.1,0-0.1,0c-0.3,0.4-0.6,0.8-1.1,1.1c-0.9,0.5-1.1,1.2-0.9,2.2c0.9,0.2,1.8,0.4,2.8,0.4c0.4,0,0.7-0.3,1.1-0.4
		c0.5-0.1,1-0.1,1.5-0.2c0,0,0,0,0-0.1c0,0,0.1,0,0.1,0c0.8-1.3,1-2.8,1.4-4.2c0.1-0.5,0.9-0.8,1.3-0.5c0.3,0.2,0.4,0.7,0.5,1.1
		c0.1,0.2,0,0.5-0.1,0.6c-1,1.1-1.5,2.6-3.1,3c0,0,0,0.1,0,0.1c0,0,0,0,0,0c0.2,2.7-1.3,4.3-3.7,5c0,1.6,1.5,1.1,2.2,1.8
		c-0.2,0.5-0.3,0.9-0.6,1.6c1.7,0.9,3.4,0.5,5,0c0.2-0.1,0.3-0.5,0.5-0.8c1-1.4,2.3-1.9,4-1.4c1.6,0.4,3.2,0.8,4.7,1.2c0,0,0,0,0,0
		c0,0,0.1,0,0.1,0c0.2-0.1,0.3-0.1,0.5-0.2c0.1,0,0.2,0,0.3,0.1c-0.1,0.1-0.2,0.3-0.3,0.3c-0.2,0-0.3-0.1-0.5-0.1c0,0,0,0,0,0
		c0,0-0.1,0-0.1,0c-0.3,0.2-0.7,0.6-1,0.6c-0.6,0-1.3-0.1-1.9-0.2c-0.5,1,0.2,1,0.6,1.3c-0.1,0.1-0.2,0.3-0.3,0.4
		c-0.7,0.5-1.3,1-2.4,0.8c-0.7-0.1-1.6,0.5-2.5,0.9c-1.1-0.9-2.6-1.5-4.3-1.5c-1.5,0-3.1,0.1-4.6,0.4c-1.8,0.4-3.5,0.4-5.2-0.2
		c-0.5-0.2-1.1-0.2-1.7-0.3c-0.4,0.6-0.8,1.1-1.3,1.8c-1.2-0.5-2.5-0.5-3.8,0.1c-0.2,0.1-0.4,0.2-0.6,0.2c-3.8-0.3-7.7,0.7-11.7-0.1
		c0.3-1.1,1.5-0.2,1.9-1c0-0.2,0-0.6-0.1-0.6c-1.2-0.3-2.6-0.2-3.3,0.7c-1.3,1.5-2.7,1.8-4.6,1.5c0.1-0.3,0.3-0.6,0.2-0.9
		c-0.1-0.3-0.7-0.9-0.7-0.9c-1.6,1.1-3.2,0.1-4.9,0.2c-0.4,0-0.9-0.2-1.3-0.1c-0.5,0.1-1.2,0.1-1.5,0.4c-1.6,1.4-3.2,1-4.9,0.5
		c-1-0.3-2.2-0.5-3.3-0.6c-0.5,0-1.2,0.2-1.4,0.6c-0.6,1.1-1.7,0.9-2.6,1.1c-0.4,0.1-1,0-1.2-0.2c-1.8-1.8-4.1-1.5-6.3-1.3
		c-2.5,0.2-4.8-0.5-7.3-0.3c-0.2,0-0.3-0.3-0.5-0.4c0.7-0.7,2-0.2,2.4-1.5c0.2-0.6,0.9-0.3,1.9,0.8c1.2-1,2.4-1.9,3.7-3
		c1.3,0.9,2.7,0.9,4.4,0.4c-0.1-0.3-0.1-0.7-0.3-0.9c-0.9-0.7-1.2-1.4-1-2.6c0.2-1.4-0.1-2.8-0.1-4.5c0.4-0.1,1-0.3,1.6-0.4
		c0.1-0.5,0.5-1.1,0.3-1.5c-0.9-2,0.1-4.3-0.9-6.3c-0.2-0.4,0.2-1,0.3-1.5l0.1,0.1c0,0,0-0.1,0.1-0.1c0,0-0.1,0-0.1,0
		c-0.9-1.3-0.4-2.7-0.1-4c0.1-0.5,0.9-0.9,1.5-1.1c0.8-0.2,1.2,0.4,1.5,1c0.4,0.7,0.5,1.4,0.1,2.2c-0.4,0.8-0.6,1.6-1,2.6
		c2.2-0.3,4.1,0,5.5,1.6c0.9-1.3,0.9-1.4,0.6-3.5c0.7-0.1,1.4-0.3,2.4-0.4c0.3,0.4,0.5,0.9,0.9,1.3c0.6,0.6,1.5,0.8,2.1,0.4
		c0.6-0.3,1.2-1.5,0.9-2c-1.5-2.2-0.4-4.8-1.5-7.1c-0.5-0.2-0.8,1.1-1.5,0.3c-0.5-0.5-0.9-0.9-1.6-1.5c-1,0.5-2,1.1-3.3,0.3
		c-0.6-0.4-1.5-0.2-2.3-0.2c-1.8-0.1-1.8,0-3.4,1.3c-0.2-0.3-0.3-0.6-0.6-1c-0.4,0.5-0.8,0.9-1.2,1.4c-2.4-2-2.8-2.1-6-2
		c-3.2,0.1-6.5,0.1-9.7,0.2c-1.3,0-2.7,0.2-4,0.2c-1.1,0-1.1,0.9-1.5,1.7c-1.6-1.8-3.7-1.4-5.7-1.3c-0.9,0.1-0.2,1.4-1.2,1.1
		c-0.6-0.2-1.2-0.5-1.9-0.6c-0.6-0.1-1.3,0-2,0.1c-1.8,0.3-3.5,0.2-5.3,0.1c-4.8-0.1-9.5-0.7-14.3,0c-1.2,0.2-2.4,0.1-3.7,0.1
		c-0.4,0-1.1-0.1-1.2-0.3c-0.8-1.4-2.1-1.1-3.3-1.1c-1.9,0-3.8,0-5.7,0.1c-0.8,0-1.6,0.1-2.3,0.3c-0.8,0.3-1.4,0.3-2.2,0.1
		c-2.2-0.6-3.6-0.3-6.6,0.6c-2.3-1.4-4.8-1.4-7.3-0.8c-1.1,0.2-2.2,0.1-3.3,0.1c-1.5-0.1-3.1-0.4-4.6-0.4c-1.1,0-2.1,0.3-3.5,0.5
		C57,4,56.5,3.7,56,3.2c-0.7-0.7-1.6-0.8-2.5-0.6c-2.3,0.6-4.5,0.3-6.9-0.2c-2.2-0.4-4.5-1.6-7,0c-0.3,0.6-0.6,1.4-1,2.1
		c-2.3-0.2-2.5-0.5-2.2-2.9c-2.6-1.1-3.5-0.4-4.5,3.9c-0.7-0.4-0.7-0.4-1.1-1.8c-0.5,0.2-1,0.4-1.6,0.7c-1.4-1.4-3.3-1.8-5.4-1.8
		c-1.8,0-3.5-0.6-5.3-0.8c-1.3-0.2-2.6-0.5-3.8,0.4c0.2,1.4,1.7,0.6,2.1,1.5c0.3,0.6-0.3,1.6,1.1,2c0.7-0.9,0.9-2.8,3-2.3
		c0.8,0.9-0.4,2.8,1.6,3.4c0.8-0.8,0.2-2.8,2-3c1.1,0.7,0,1.3,0,2c0.7,0.8,1.6,0.8,2.4,0.4c1-0.6,2-1.2,2.7,0.4
		c0,0.1,0.2,0.2,0.3,0.1c1.9-0.6,2.8,0.6,3.8,1.9c0.3,0.4,0.9,0.6,1.3,0.9c0,0,0,0,0,0c0,0,0,0,0.1,0c2.2-1.2,3.7-0.4,5.1,1.6
		c-0.7,0.8-1.4,1.5-2.1,2.3c0.6,2.1,2.8,0.7,4.1,2c-0.6,0.4-1.1,1-1.5,0.9c-1.5-0.3-3.1,0.3-4.4-1c0.6-1.8-0.2-3.4-0.5-5.1
		c0-0.2-0.4-0.4-0.7-0.6c0,0,0,0,0,0c0,0,0,0-0.1,0c-1,1.6-2.7,2.2-4.3,2.7c-1.8,0.6-3-0.5-4.2-1.6c-0.1,0.8-0.2,1.6-1.3,1.3
		c-1-0.3-2-0.8-3.2-1.2c-0.6,0.3-1.3,0.7-2,1.1c0,0.4,0,0.6,0,0.8c0.1,0.2,0.2,0.4,0.4,0.5c1.8,1.1,2.4,2.7,1.7,4.6
		c1.2,0.6,1.4-0.5,2-0.9c0.5-0.4,1-0.8,1.6-1.3c1.5,0,2.3,1.1,2.8,2.6c0.6-1,0.4-2,0.4-2.9c0-1.8,0.8-2.2,2.6-1.5
		c0.2,0.1,0.4,0.3,0.7,0.5c-0.2,1.4-0.8,2.9,0.4,4.5c0.6-0.3,1.2-0.7,2-1.2c0.2,0.2,0.6,0.5,1.1,0.9c0.2,0,0.4,0,0.6-0.1
		c1.6-0.8,2-0.8,2.9,0.1c1.5,1.4,1.5,1.4,3-0.1c1.7-0.1,3.5-0.4,4.8,1.4c0.2,0.2,0.6,0.3,0.9,0.3c1,0.2,2,0.3,2.9,0.5
		c0.9,0.2,1.4-0.3,2.1-1c1,0.7,2.1,1.4,3.2,2.1c-1.1,1.1-2.1,0-3.1,0.1c-1.1,0.1-2.1,0.5-3.3,0.8c0,0.5,0,0.9,0.1,1.3
		c0.7,0.2,1.5,0.2,2.1,0.5c1.1,0.5,2.1,0.5,3.3-0.2c0.4,0.6,0.8,1.4,1.3,1.8c0.6,0.4,1.4,0.7,2.1,0.8c1,0.2,1.6,0.7,2.1,1.5
		c0.4,0.7,0.9,1.4,1.4,2.2c1.6-1.2,2.6-1.4,3.3-0.8c0.8,0.7,0.7,1.8-0.4,3.2c0.6,1.3,1.7,1.9,3.1,2c0.6,0.1,1.2-0.8,1-1.4
		c-0.1-0.2-0.2-0.4-0.3-0.6c-1.7-1.4-1.2-3.4-1.5-5.4c2,0.3,1.3,2.1,2.1,2.8c1.5-0.2,1.6-0.4,0.9-1.4c-0.2-0.3-0.7-0.5-0.4-1.2
		c0.5,0.2,1,0.4,1.4,0.7c0.5,0.3,0.9,0.6,1.4,0.9c0.4-0.3,0.8-0.6,1.2-0.8c0.9,0.5,1.9,0.9,2.8,1.5c0.5,0.3,0.9,0.9,1.2,1.5
		c0.2,0.4-0.2,1-0.7,0.9c-1.6-0.5-3.6,0.7-4.7-1.7c-0.9,1.2-1.4,2-2.1,3c0.7,0.4,1.1,0.8,1.6,0.9c2.1,0.2,4.2,0.4,6.3,0.5
		c1.6,0.1,3,0.4,4.5,1.7c-1.8,0.5-3.1-0.2-4.4-0.2c-1.2,0.1-2.4,0.3-3.6,0.3c-1.4,0-2.4,0.9-3.4,1.4c-0.5-0.2-0.8-0.2-0.9-0.4
		c-0.5-0.7-0.9-1.6-2-1.4c-1.2,0.1-2.4,0-3.2,1.3c-0.7,1-1.9,1.1-2.6,0.4c-0.5-0.6-0.8-1.5-1.4-1.7c-0.8-0.4-1.9-0.4-2.9-0.6
		c-0.8,1.4,0.7,1.4,1.2,2c-0.3,0.3-0.6,0.6-1,0.7c-0.4,0.1-0.9,0.2-1.3,0c-2.5-1-5.2-0.9-7.7-1.6c-1.7-0.4-3.5-0.5-5.2-0.3
		c-3,0.4-5.7-0.4-8.6-1c-0.8-0.2-1.6-1-2.4-1c-0.8,0-1.6,0.5-2.6,0.4c-1.7-0.2-3.5-0.3-5.3-0.4c-1.2-0.1-2.4-0.1-3.7-0.1
		c-2.4,0.2-4.6-0.3-6.6-1.9c-2.2,1.3-4.6,1.1-7.1,1c-2.7-0.1-5.4-0.2-8.2-0.3v10.4c0.8,0.1,1.6,0.1,2.5,0.2c1,0.1,2,0,3,0.1
		c0.4,0,0.8,0.1,1.2,0.2c2.6,1,5.4,1.2,8.2,1c1.3-0.1,2.4-1.3,3.8-0.9c1.1,0.4,2.3,0.7,3.4,1.3c1.3,0.6,2.5,0.6,3.8,0
		c1.5-0.7,3-0.7,4.5,0.3c0.7,0.4,1.4,0.6,2.2,0.7c1,0.1,1.9,0.5,2.9,0.7c0,0.6,0,1.1-0.1,1.5c0,0.8,0.3,1.4,1.1,1.4
		c4,0.2,7.9,1.4,11.9,1.1c2.4-0.2,4.9,0.1,7.3,0.5c3.5,0.5,6.9-0.1,10.3-0.2c1,0,2.2-0.7,3-1.4c1.2-1.1,2.5-1.3,4-1.4
		c3.9-0.1,7.8-0.1,11.7-0.3c7.9-0.4,15.8-0.4,23.7-1.4c1-0.1,2,0.1,3,0.2c1.6,0,3.1,0,4.7,0c0.7,0,1.4,0,1.8,0.7
		c0.3,0.7,0.1,1.3-0.5,1.8c-0.2,0.2-0.4,0.5-0.5,0.8c0.7,0.8,1.5,0.5,2.2,0.3c4-1.1,8.1-1.6,12.2-1.5c1.5,0,3.1,0.5,4.6,0.4
		c1.4-0.1,2.8-0.8,4.2-1c3.9-0.4,7.8-0.6,11.7-0.9c1.4-0.1,2.8,0,4.2-0.5c-1.5-1.9-3.5-0.6-5-1.1c-0.4-1,0.2-1.5,0.8-1.6
		c1.4-0.2,2.9-0.4,4.3-0.2c2.1,0.3,4.2,0.3,6.3-0.2c1.4-0.3,2.9-0.4,4.3-0.4c3.2-0.2,6.5-0.3,9.7-0.4c1.1,0,2-0.3,2-1.8
		c0.9-0.1,1.8-0.2,2.6-0.2c4.2-0.1,8.4-0.3,12.7-0.3c1.4,0,2.9,0.2,4.3,0.4c0.4,0.1,0.8,0.4,1,0.8c0.5,0.7,1.2,1,2,0.9
		c0.4,0,0.9-0.3,1-0.6c0.1-0.3-0.3-0.7-0.5-1.1c1.1-0.3,2.2-0.2,3.3,0.3c0.4,0.2,0.9,0.4,1.2,0.2c1-0.5,1.6-0.2,2.3,0.5
		c0.5,0.4,1.4,0.5,2.2,0.4c1.3-0.1,2.6-0.2,3.9,0.5c1.3,0.6,2.5,0.1,3.6-1.2c-2.1-0.9-4.1,0-6.1-0.5c4-0.2,7.9-0.3,11.8-0.4
		c0.4,0,0.8,0.2,1.1,0.4c0,0,0,0,0,0c0,0,0.1,0,0.1,0c0,0,0,0,0,0c0.4,0,0.9,0,1.3,0.1c1,0.2,1.9,0.5,2.9,0.8
		c0.2,0.8,0.4,1.5,0.6,2.2c1,0.9,2.2,0.6,3.2,0.6c2,0,4,0,6,0.1c3.1,0.2,5.9-0.5,8.5-2.5c1.4,2,3.5,2,5.4,1.7
		c2.3-0.4,4.6-0.8,6.9-0.9c1.2,0,2.3-0.7,3.5-0.9c1.2-0.2,2.4-0.3,3.6-0.4c0.2,0,0.4-0.3,0.7-0.5c-0.6-0.3-1.1-0.5-1.6-0.8
		c0,0,0-0.1,0.1-0.1c2.1,0.1,4.3,0.1,6.4,0c3.3-0.2,6.6-0.2,9.9-0.3c4-0.2,8-0.2,12-0.2c2.7,0,5.3,0.3,8,0.2
		c4.8-0.1,9.5-0.6,14.3-0.1c0.5,0.1,1.1-0.1,1.7-0.1c1.3-0.1,2.7-0.1,4-0.2c2.8-0.1,5.6,0,8.3-0.4c3.7-0.6,7.3-0.9,11-0.8
		c0.6,0,1.1,0,1.7,0c0.6,0,1.1,0,1.7,0c3.7-0.1,7.3,0.3,11,0.8c2.7,0.4,5.5,0.3,8.3,0.4c1.3,0.1,2.7,0.1,4,0.2
		c0.5,0,1.1,0.2,1.7,0.1c4.8-0.5,9.5,0,14.3,0.1c2.7,0.1,5.3-0.2,8-0.2c4,0,8,0,12,0.2c3.3,0.2,6.6,0.2,9.9,0.3c2.1,0.1,4.3,0,6.4,0
		c0,0,0,0.1,0.1,0.1c-0.5,0.3-1,0.5-1.6,0.8c0.4,0.3,0.5,0.5,0.7,0.5c1.2,0.2,2.4,0.2,3.6,0.4c1.2,0.2,2.3,0.9,3.5,0.9
		c2.3,0.1,4.6,0.5,6.9,0.9c2,0.3,4,0.4,5.4-1.7c2.6,2,5.4,2.7,8.5,2.5c2-0.1,4-0.1,6-0.1c1.1,0,2.2,0.3,3.2-0.6
		c0.2-0.7,0.4-1.4,0.6-2.2c1-0.3,1.9-0.6,2.9-0.8c0.4-0.1,0.9-0.1,1.3-0.1c0,0,0,0,0,0c0,0,0.1,0,0.1,0c0,0,0,0,0,0
		c0.4-0.2,0.8-0.4,1.1-0.4c3.9,0.1,7.8,0.3,11.8,0.4c-2,0.5-4-0.4-6.1,0.5c1.1,1.4,2.4,1.9,3.6,1.2c1.3-0.6,2.5-0.6,3.9-0.5
		c0.7,0.1,1.7,0,2.2-0.4c0.8-0.7,1.4-1,2.3-0.5c0.3,0.1,0.8,0,1.2-0.2c1.1-0.6,2.2-0.6,3.3-0.3c-0.2,0.4-0.6,0.9-0.5,1.1
		c0.1,0.3,0.7,0.5,1,0.6c0.8,0,1.5-0.2,2-0.9c0.2-0.3,0.6-0.7,1-0.8c1.4-0.2,2.9-0.4,4.3-0.4c4.2,0,8.4,0.2,12.7,0.3
		c0.9,0,1.7,0.1,2.6,0.2c0,1.5,0.9,1.8,2,1.8c3.2,0.1,6.5,0.2,9.7,0.4c1.4,0.1,2.9,0.1,4.3,0.4c2.1,0.5,4.1,0.6,6.3,0.2
		c1.4-0.2,2.9,0,4.3,0.2c0.6,0.1,1.2,0.6,0.8,1.6c-1.6,0.5-3.6-0.8-5,1.1c1.4,0.5,2.8,0.4,4.2,0.5c3.9,0.3,7.8,0.5,11.7,0.9
		c1.4,0.1,2.8,0.9,4.2,1c1.5,0.1,3.1-0.4,4.6-0.4c4.1-0.1,8.2,0.4,12.2,1.5c0.7,0.2,1.5,0.5,2.2-0.3c-0.2-0.3-0.3-0.6-0.5-0.8
		c-0.6-0.5-0.9-1.1-0.5-1.8c0.3-0.7,1.1-0.7,1.8-0.7c1.6,0,3.1,0,4.7,0c1,0,2-0.3,3-0.2c7.9,1.1,15.8,1,23.7,1.4
		c3.9,0.2,7.8,0.2,11.7,0.3c1.5,0,2.8,0.3,4,1.4c0.8,0.7,1.9,1.3,3,1.4c3.4,0.1,6.9,0.7,10.3,0.2c2.4-0.4,4.9-0.7,7.3-0.5
		c4.1,0.3,7.9-0.9,11.9-1.1c0.8,0,1.1-0.6,1.1-1.4c0-0.4,0-0.8-0.1-1.5c1-0.3,2-0.6,2.9-0.7c0.8-0.1,1.5-0.2,2.2-0.7
		c1.4-1,3-0.9,4.5-0.3c1.3,0.6,2.5,0.7,3.8,0c1.1-0.5,2.3-0.9,3.4-1.3c1.4-0.5,2.5,0.8,3.8,0.9c2.8,0.1,5.5,0,8.2-1
		c0.4-0.1,0.8-0.2,1.2-0.2c1,0,2,0,3-0.1C684.4,44.2,685.2,44.2,686,44.1z M34.7,15.5c-0.1-0.1-0.3-0.1-0.4-0.1
		c0.1-0.1,0.1-0.2,0.2-0.2c0.1,0,0.2,0.1,0.3,0.1C34.7,15.3,34.7,15.4,34.7,15.5z M40.7,4.4c0,0.1-0.1,0.2-0.1,0.3
		c-0.2-0.1-0.4-0.2-0.5-0.2c0,0,0.1-0.2,0.1-0.3C40.4,4.2,40.6,4.3,40.7,4.4z M49.7,12.9c0,0.5-0.1,1.1-0.2,1.6
		c-0.3,2.6-0.9,3.1-3.3,2.4c-0.5-0.1-0.9-0.5-1.4-0.8c0,0,0,0-0.1,0c-0.1-0.1,0,0,0,0c0,0,0,0,0,0c0.6-0.3,1.1-0.7,1.8-0.3
		c0.7,0.4,1.4,0.5,2-0.2c0.2-0.9-0.4-1.2-1-1.6c-0.5-0.3-0.9-0.6-1.3-1c-0.4-0.5-0.8-1-1.1-1.5c-1.9,0.4-1.9,0.4-2.1-0.7
		c1.2,0,2.4,0.1,3.6,0.1c0.4,0,0.9,0,1.3,0.1C49,11.3,49.7,12,49.7,12.9z M54.7,13.9c-0.2,0.4-1,0.3-1.4-0.2
		c-0.4-0.6-1.1-1.2-0.4-2.2c0.6,0.3,1.4,0.5,1.9,1C55.1,12.7,54.9,13.5,54.7,13.9z M59.8,13.2c-0.1,0.1-0.3,0.2-0.5,0.4
		c-0.1-0.1-0.4-0.3-0.4-0.4c0-0.2,0.2-0.4,0.3-0.5C59.4,12.8,59.6,13,59.8,13.2z M64.1,22.5c-2.1,0-2.1,0-2-2
		C62.7,21.1,63.2,21.6,64.1,22.5z M70.3,14.9c-0.2,0-0.4,0.1-0.6,0.1c-0.1,0-0.3-0.1-0.4-0.2c0.3,0,0.6-0.1,0.9-0.1
		C70.3,14.7,70.3,14.8,70.3,14.9z M72.1,23.3c-1.1-1.2-1.8-2-2.5-2.8c-0.1,0.1-0.2,0.3-0.3,0.4c0.1-0.2,0.2-0.3,0.3-0.5c0,0,0,0,0,0
		c0,0,0,0,0,0c0.2-0.1,0.5-0.3,0.6-0.3C71.1,20.8,71,20.8,72.1,23.3z M74.4,22.6c-0.1,0-0.2,0.1-0.2,0.1c-0.1,0-0.1-0.2-0.1-0.2
		c0.1,0,0.2-0.1,0.2-0.1C74.4,22.4,74.4,22.5,74.4,22.6z M77.3,23.3c0,0.1,0,0.2,0,0.2c-0.1,0-0.3-0.1-0.4-0.1
		c0-0.1,0.1-0.2,0.1-0.2C77.1,23.2,77.2,23.3,77.3,23.3z M79.2,5.1L79,5.2l0-0.2L79.2,5.1z M84.7,37.3c-0.1,0-0.2,0.1-0.2,0.1
		c0-0.1-0.1-0.1-0.1-0.2c0.1,0,0.2-0.1,0.2-0.1C84.6,37.1,84.6,37.2,84.7,37.3z M89.2,29.6c0,0.5-0.1,1-0.2,1.5
		c-0.2,0-0.5-0.1-0.5-0.1c0-0.5,0-1,0-1.5c0-0.1,0.2-0.1,0.4-0.3C89.1,29.4,89.2,29.5,89.2,29.6z M94.7,31.4
		c-0.2,0.1-0.4,0.2-0.6,0.2c-0.1,0-0.2-0.3-0.3-0.4c0.2-0.1,0.4-0.2,0.6-0.3C94.5,31.1,94.6,31.2,94.7,31.4z M96.5,35.6
		c-2.1,0-3.5,0.9-4.6,2.5c-0.6-0.4-1-0.8-1.5-1c-0.5-0.3-1.1-0.4-2.2-0.9c1.5-0.2,2.4-0.2,3.2-0.4c0.8-0.2,1.6-0.7,2.4-1
		C94.7,34.5,94.7,34.5,96.5,35.6z M97.3,30.5l-0.1,0.2l-0.1-0.2L97.3,30.5z M104.9,46c1.6-1.1,3.4-0.6,5.3-1.2c0,0.7,0.1,0.9,0,1.1
		c-0.1,0.2-0.3,0.4-0.4,0.4C108.4,46.9,107.1,46.8,104.9,46z M104.4,36.8c0.9,0,1.8-0.1,2.7-0.1c0,0.1,0,0.2,0,0.3
		c-0.9,0-1.8,0.1-2.7,0.1C104.4,37,104.4,36.9,104.4,36.8z M103.5,35.5c1.6-0.2,2.4-0.7,4.1-0.5C106.2,35.9,105.3,35.9,103.5,35.5z
		 M105.6,20.9l-0.2,0l0.2-0.1L105.6,20.9z M109.3,30c-1.9,0.4-3.6,0.8-5.4,1.2c-0.2-0.5-0.4-0.9-0.6-1.4
		C105.4,29.1,107.2,29,109.3,30z M112,34.8c0,0.2-0.2,0.5-0.3,0.5c-0.6,0-1.2-0.1-1.8-0.2c0-0.2,0.1-0.4,0.1-0.7c0.5,0,1-0.1,1.6,0
		C111.8,34.3,112,34.6,112,34.8z M113.5,45.9c-0.3,0.2-0.5,0.3-0.9,0.5c-0.2-0.3-0.3-0.5-0.4-0.8c0.3-0.1,0.5-0.4,0.8-0.3
		C113.2,45.3,113.4,45.7,113.5,45.9z M123.2,34.3c-0.3,0-0.6,0-1,0c0.1-0.1,0.2-0.2,0.3-0.2C122.7,34.2,122.9,34.2,123.2,34.3z
		 M125,28.6c-0.2,0.1-0.4,0.2-0.5,0.3c0-0.2-0.1-0.3-0.1-0.5c0-0.1,0.2-0.2,0.3-0.2C124.7,28.3,124.8,28.5,125,28.6z M129.7,44.4
		c0,0.2-0.1,0.4-0.1,0.6c-0.5,0-1,0-1.5-0.1c-0.1,0-0.3-0.3-0.3-0.4c0.1-0.2,0.3-0.4,0.5-0.4C128.8,44.2,129.2,44.3,129.7,44.4z
		 M133.2,48c-0.1,0.2-0.2,0.5-0.3,0.5c-0.5-0.1-0.9-0.3-1.4-0.6c0,0,0-0.4,0.1-0.5C132.2,47,133,47.4,133.2,48z M161,9.5
		c1.7-0.8,2.9-0.6,3.9,0.8c0,0,0,0,0.1,0c0,0,0.1,0,0.1,0.1c0,0,0.1,0,0.1,0c0.1,0,0.1,0.1,0.2,0.2c-0.1-0.1-0.2-0.1-0.3-0.2
		c-0.1,0-0.1,0-0.2,0c0,0,0,0,0,0c-0.4,0.3-0.9,0.8-1.3,0.8C162.6,10.8,161.6,10.6,161,9.5z M159.2,8.8c-0.1,0-0.2,0-0.3,0
		c0.1-0.1,0.1-0.3,0.2-0.4c0.1,0.1,0.2,0.1,0.2,0.2C159.3,8.6,159.2,8.7,159.2,8.8z M158.9,12.8l0.2-0.2l0,0.2L158.9,12.8z
		 M158.7,4.8c0.1,0.1,0.3,0.1,0.4,0.2c-0.1,0.1-0.1,0.2-0.2,0.2c-0.1,0-0.2-0.1-0.3-0.1C158.7,5,158.7,4.9,158.7,4.8z M150.9,16.3
		c0.1-0.2,0.2-0.3,0.3-0.4c0.1,0.2,0.2,0.3,0.3,0.5c-0.2,0.1-0.3,0.2-0.5,0.2C151.1,16.6,150.9,16.4,150.9,16.3z M150.2,18.8l0.2,0
		l-0.1,0.2L150.2,18.8z M141.5,33.6c-0.9,0.4-2,0.5-2.2,0.9c-0.5,1.2-1.4,0.8-2.5,0.7c0.5-0.9,0.8-1.5,1.1-2.1
		C139.2,32.9,140.4,32.8,141.5,33.6z M140.9,10l0.2,0.1l-0.2,0.1L140.9,10z M141.1,8.4c-0.1,0.1-0.1,0.2-0.2,0.2
		c-0.1,0-0.2,0-0.3-0.1c0-0.1,0-0.2,0-0.3C140.9,8.3,141,8.4,141.1,8.4z M145.5,6.4c-0.1,0.1-0.3,0.2-0.4,0.3
		c-0.1-0.1-0.2-0.3-0.3-0.4c0.1-0.1,0.3-0.2,0.4-0.3C145.2,6.2,145.4,6.3,145.5,6.4z M142.6,19.5c0.8-0.6,1.5-1.2,2.5-2
		c0,1.1,0.1,1.8,0.1,2.4C144.2,20.4,143.4,20.3,142.6,19.5z M141.1,12.4c0.5,0.1,0.9,0.2,1.4,0.3C141.9,12.8,141.3,13.5,141.1,12.4z
		 M153.2,37.7l-0.2,0.1l-0.1-0.2L153.2,37.7z M163.1,36.8c-0.2,0.1-0.3,0.1-0.4,0.1c0-0.1,0-0.2,0.1-0.3
		C162.9,36.7,163,36.8,163.1,36.8z M172.1,42.4l-0.2,0.1l0-0.2L172.1,42.4z M174.8,42.2c-0.1,0.1-0.2,0.2-0.3,0.3c0-0.1,0-0.2,0-0.2
		C174.6,42.2,174.7,42.2,174.8,42.2z M203.8,36.1c-0.1,0-0.1,0.1-0.2,0.1c0-0.1-0.1-0.1-0.1-0.2c0.1,0,0.2-0.1,0.2-0.1
		C203.8,35.9,203.8,36,203.8,36.1z M214.7,25.7c0,0.1-0.1,0.2-0.1,0.3c0-0.2-0.1-0.3-0.1-0.4C214.6,25.7,214.7,25.7,214.7,25.7z
		 M201.9,18.4c0.5,0,1,0,1.7-0.1c0.1,0.8,0.4,1.4,0.2,2c-0.2,0.5-0.9,0.8-2,1.9c0.1-2-1.4-2.5-1.4-3.9
		C201.1,18.3,201.5,18.3,201.9,18.4z M204.2,15.3c0.1,0.5-0.7,1.1-1.2,0.9c-0.4-0.2-1.1-0.8-1-1.1c0.2-1.2,0.6-2.3,1-3.4
		c0-0.1,0.4-0.1,0.7-0.2C203.8,12.7,204,14,204.2,15.3z M205.5,12.5l-0.1,0.1l0-0.2L205.5,12.5z M216.5,11.3c0,0.2-0.2,0.3-0.3,0.5
		c-0.1-0.2-0.4-0.3-0.3-0.5c0.1-0.2,0.3-0.4,0.4-0.6C216.4,10.9,216.5,11.1,216.5,11.3z M218.6,26.8c0,0.4-0.2,0.8-0.4,1.8
		c-0.4-1-0.7-1.4-0.7-1.8c0-0.2,0.4-0.4,0.6-0.6C218.3,26.4,218.6,26.6,218.6,26.8z M220.4,9.1c0-0.1-0.1-0.3-0.1-0.3
		c0.5-0.6,1.1-1.2,1.7-1.9C222.3,8.8,222.3,8.8,220.4,9.1z M221.5,17.7c0.1,0,0.2,0.1,0.3,0.1c-0.2,0.1-0.3,0.1-0.4,0.1
		C221.5,17.9,221.5,17.8,221.5,17.7z M222.4,26.4c-0.2,0.2-0.3,0.3-0.4,0.4c-0.1-0.2-0.3-0.3-0.3-0.5c0-0.2,0.1-0.3,0.2-0.5
		C222,26.1,222.2,26.2,222.4,26.4z M225.2,24.9c-0.1,0-0.3-0.1-0.4-0.1c0-0.1,0.1-0.2,0.1-0.2c0.1,0,0.2,0.1,0.2,0.1
		C225.2,24.7,225.2,24.8,225.2,24.9z M224.4,28c-0.5-0.8-0.2-1.3,0.6-1.6C225.3,27.2,225.3,27.7,224.4,28z M225.8,33.4
		c-0.8,0.5-1,0.7-1.3,0.9c0-0.2-0.1-0.3-0.1-0.5C224.7,33.7,225,33.6,225.8,33.4z M228.2,11.4c-0.1,0.1-0.2,0.3-0.3,0.4
		c-0.1-0.1-0.2-0.2-0.3-0.4c0,0,0.1-0.2,0.1-0.2C227.9,11.2,228,11.3,228.2,11.4z M229,26c-0.1,0.2-0.2,0.4-0.3,0.6
		c-0.5-0.1-1-0.1-1.5-0.3c-0.2-0.1-0.3-0.6-0.2-0.8c0.1-0.2,0.6-0.4,0.8-0.3C228.2,25.4,228.6,25.8,229,26z M229.3,31.4
		c0,0.1,0,0.2,0,0.3c-0.7,0-1.4-0.1-2.1-0.1c0-0.2,0.1-0.5,0.1-0.7C227.9,31.1,228.6,31.3,229.3,31.4z M229.7,33.6
		c-0.1,0.2-0.1,0.4-0.2,0.5c-0.1,0-0.3-0.1-0.5-0.1c0-0.2,0.1-0.4,0.1-0.5C229.3,33.5,229.5,33.6,229.7,33.6z M239.6,33.3
		c0-0.1,0.1-0.2,0.1-0.2c0.2,0,0.3,0.1,0.5,0.2c0,0.1-0.1,0.2-0.1,0.2C240,33.5,239.8,33.4,239.6,33.3z M240,23
		c0.4,1.1,0.9,2.1,1.3,3.1c0,0.1-0.1,0.2-0.1,0.5c-1.1,0.4-2.2,0.2-3.5-0.4C238,24.7,238.4,23.5,240,23z M243.5,19.7
		c0.1,0.1,0,0.4-0.1,0.5c-0.1-0.1-0.3-0.3-0.3-0.4c0-0.2,0-0.4,0-0.6c0,0,0,0,0,0c-0.5,0.5-1,1.1-1.5,1.5c-0.4,0.3-1.2-0.3-1.1-0.7
		c0.2-0.7,0.5-1.3,0.9-2c0.7,0.5,1.2,0.9,1.8,1.2c0,0,0,0,0,0c0,0,0,0,0-0.1c0,0,0,0.1,0,0.1C243.2,19.4,243.4,19.5,243.5,19.7z
		 M248.9,31.4c-1.7-0.5-1.8,0.7-2.1,1.8c-1.2-0.3-1.7-1.3-2.5-2.1c0,0,0,0-0.1,0c0,0,0,0,0,0c-1.9,1-1.9,1-3.2,0
		c1.1-0.1,2.1-0.7,3.2,0c0,0,0,0,0.1,0c0,0,0,0,0,0C247,30.4,247.2,30.4,248.9,31.4z M250.5,26.1c-0.2,0.2-0.4,0.5-0.6,0.5
		c-0.2,0-0.4-0.4-0.5-0.6c0.2-0.2,0.5-0.3,0.7-0.4C250.1,25.6,250.3,25.8,250.5,26.1z M380.4,33.9l0.1-0.2l0,0.3L380.4,33.9z
		 M379.6,23.2c0.1,0.2,0.2,0.4,0.1,0.6c0,0.1-0.3,0.1-0.4,0.2c-0.1-0.2-0.1-0.4-0.2-0.6C379.2,23.3,379.4,23.3,379.6,23.2z
		 M377.5,16.1c0,0.2-0.4,0.3-0.6,0.4c-0.1-0.3-0.3-0.6-0.3-0.8c0-0.2,0.3-0.4,0.7-1C377.4,15.4,377.6,15.7,377.5,16.1z M366.8,12.8
		c-0.1,0-0.2-0.3-0.3-0.4c0.1-0.1,0.3-0.3,0.4-0.3c0.1,0,0.2,0.3,0.3,0.4C367.1,12.6,367,12.8,366.8,12.8z M366.7,16.6
		c0,0.1-0.1,0.3-0.1,0.4c-0.2,0.8,0.7,1.5,1.5,1.2c0.5-0.2,1.1-0.5,1.6-0.7c0.5,0.4,0.9,1,1.4,1.6c-0.3,0.2-0.6,0.4-0.9,0.5
		c-0.1-0.1-0.2-0.1-0.3-0.1c-0.5,0-0.9,0-1.4,0c-0.4-0.3-0.9-0.7-1.3-0.9c-0.8-0.4-2,0.1-2.6-1.1C365.1,16.4,365.9,16.5,366.7,16.6z
		 M365.9,15.2c-0.6-0.2-1-0.2-1.3-0.3c0.1-0.5,0.2-0.8,0.3-1.2C365.1,14.2,365.4,14.7,365.9,15.2z M363.9,29.4
		c0,0.1,0.1,0.2,0.1,0.3c-0.1,0-0.2,0-0.3,0c0-0.1-0.1-0.1-0.1-0.2C363.7,29.5,363.8,29.5,363.9,29.4z M364.1,24.2
		C364.1,24.1,364.2,24.1,364.1,24.2c0.1-0.1,0.1,0,0.2,0C364.2,24.1,364.2,24.1,364.1,24.2z M381.8,34.2c0-0.2,0.3-0.5,0.6-0.9
		c0,0.2,0.1,0.3,0.1,0.5c0,0,0,0-0.1,0c-0.1,0.4-0.3,0.8-0.4,1.2c0,0,0,0,0,0C381.9,34.7,381.8,34.4,381.8,34.2z M385.2,34.3
		c0.3-0.1,0.6-0.2,0.9-0.3c0.2,0.3,0.3,0.6,0.5,0.9C386.2,34.9,385.7,34.8,385.2,34.3z M392,13.4l-0.2,0l0.1-0.2L392,13.4z
		 M392,29.2c-0.3-0.5-0.5-1-0.8-1.6c0.5-0.3,0.9-0.7,1.3-1.1c1.7-0.1,1.7,1.7,2.7,2c0.1,0,0.1,0.1,0.2,0.1c-0.1,0-0.2,0.1-0.3,0.1
		c0.1,0.2,0.1,0.5,0.2,0.5c0.2,0,0.4,0,0.6-0.1c0.2,0.6,0,1.3,0.6,1.7c-0.1,1.4-0.1,2.8-0.2,4.1c-1,0.5-1.8,0.5-2.4-0.1
		c0,0,0.1-0.1,0.1-0.1c-0.3-0.7-0.7-1.1-1.1-1.5c0.1-0.1,0.2-0.1,0.3-0.2c-0.5-0.8-0.8-1.4-1.2-2c0.5-0.5,0.9-0.8,1.6-1.3
		c-0.7-0.2-1.3-0.3-1.8-0.4C391.8,29.2,391.9,29.2,392,29.2z M391.1,22.8c0-0.2,0.4-0.6,0.6-0.6c0.9,0.2,1.8,0.6,3.6,1.2
		c-1.3,0.6-1.9,1-2.5,1c-0.6,0.1-1.2-0.3-1.5-0.8C391.3,23.4,391.3,23.1,391.1,22.8z M387,25.1c-0.6,0.2-1.3,0.4-1.9,0.6
		c0.2-0.1,0.4-0.3,0.6-0.5c-0.1-0.3-0.2-0.7-0.3-1c0.1,0,0.3-0.1,0.4-0.1C386.3,24.1,386.9,24.1,387,25.1z M382.7,12.2
		c0,0.1,0.1,0.2,0.1,0.3c-0.2,0-0.3,0.1-0.5,0.1c0-0.1-0.1-0.3-0.1-0.5C382.4,12.2,382.6,12.2,382.7,12.2z M394.4,7.8
		c0.1-0.5,0.4-0.9,1.2-1.9c0,0.1,0,0.1,0.1,0.2c0,0.4-0.1,0.8-0.2,1.2c-0.2,0.3-0.4,0.5-0.6,0.8C394.7,7.9,394.5,7.8,394.4,7.8z
		 M403.3,34.5c0,0,0.1,0.1,0.1,0.1c0,0.1,0,0.1-0.1,0.2C403.3,34.7,403.2,34.6,403.3,34.5C403.2,34.5,403.2,34.5,403.3,34.5z
		 M405.6,12.3c0.1,0,0.2,0,0.3,0c-0.1,0.1-0.1,0.3-0.2,0.4c-0.1-0.1-0.1-0.1-0.2-0.2C405.6,12.5,405.6,12.3,405.6,12.3z M321.1,13.7
		c0.1,0.4,0.2,0.8,0.3,1.2c-0.3,0.1-0.7,0.1-1.3,0.3C320.6,14.7,320.9,14.2,321.1,13.7z M306.9,23.4c-0.1,0.2-0.1,0.4-0.2,0.6
		c-0.2-0.1-0.4-0.1-0.4-0.2c0-0.2,0.1-0.4,0.1-0.6C306.6,23.3,306.8,23.3,306.9,23.4z M309.4,15.6c0,0.3-0.2,0.6-0.3,0.8
		c-0.2-0.1-0.6-0.2-0.6-0.4c-0.1-0.3,0.1-0.7,0.2-1.4C309.1,15.2,309.4,15.4,309.4,15.6z M305.5,34l0-0.3l0.1,0.2L305.5,34z M304,35
		c-0.1-0.4-0.3-0.9-0.4-1.2c0,0,0,0-0.1,0c0-0.1,0.1-0.3,0.1-0.5c0.3,0.4,0.5,0.7,0.6,0.9C304.2,34.4,304.1,34.7,304,35
		C304,35,304,35,304,35z M282.8,34.5c0,0.1-0.1,0.1-0.1,0.3c0-0.1-0.1-0.1-0.1-0.2C282.6,34.6,282.7,34.6,282.8,34.5
		C282.8,34.5,282.8,34.5,282.8,34.5z M280.3,12.7c-0.1-0.1-0.1-0.3-0.2-0.4c0.1,0,0.2-0.1,0.3,0c0.1,0,0.1,0.2,0.1,0.2
		C280.4,12.6,280.3,12.7,280.3,12.7z M294,29.2c0.1,0,0.1,0.1,0.2,0.1c-0.6,0.1-1.2,0.2-1.8,0.4c0.6,0.5,1,0.9,1.6,1.3
		c-0.3,0.6-0.7,1.2-1.2,2c0.1,0.1,0.2,0.1,0.3,0.2c-0.4,0.4-0.7,0.8-1.1,1.5c0,0,0.1,0.1,0.1,0.1c-0.7,0.6-1.4,0.7-2.4,0.1
		c-0.1-1.3-0.1-2.7-0.2-4.1c0.5-0.4,0.3-1.1,0.6-1.7c0.2,0.1,0.4,0.1,0.6,0.1c0.1,0,0.1-0.3,0.2-0.5c-0.1,0-0.2-0.1-0.3-0.1
		c0.1,0,0.1-0.1,0.2-0.1c1-0.3,1-2.1,2.7-2c0.4,0.4,0.8,0.8,1.3,1.1C294.6,28.1,294.3,28.6,294,29.2z M294,13.4l0.1-0.2l0.1,0.2
		L294,13.4z M294.9,22.8c-0.1,0.2-0.2,0.5-0.2,0.8c-0.3,0.6-0.8,0.9-1.5,0.8c-0.6-0.1-1.1-0.5-2.5-1c1.7-0.6,2.6-1,3.6-1.2
		C294.4,22.2,294.8,22.6,294.9,22.8z M291.6,7.8c-0.1,0.1-0.3,0.1-0.5,0.2c-0.2-0.3-0.4-0.5-0.6-0.8c-0.1-0.4-0.2-0.8-0.2-1.2
		c0,0,0-0.1,0.1-0.2C291.2,6.9,291.6,7.3,291.6,7.8z M303.3,12.2c0.2,0,0.3,0,0.5,0c0,0.2-0.1,0.3-0.1,0.5c-0.2,0-0.3-0.1-0.5-0.1
		C303.2,12.4,303.2,12.3,303.3,12.2z M300.3,25.2c0.2,0.2,0.4,0.4,0.6,0.5c-0.7-0.2-1.3-0.4-1.9-0.6c0.1-1,0.7-1,1.2-1
		c0.1,0,0.3,0,0.4,0.1C300.5,24.6,300.4,24.9,300.3,25.2z M300.8,34.3c-0.5,0.4-0.9,0.6-1.3,0.7c0.1-0.3,0.3-0.6,0.5-0.9
		C300.2,34.2,300.4,34.2,300.8,34.3z M322.1,29.4c0.1,0.1,0.2,0.1,0.3,0.1c0,0.1-0.1,0.1-0.1,0.2c-0.1,0-0.2,0-0.3,0
		C322,29.6,322.1,29.6,322.1,29.4z M321.7,24.1C321.8,24.1,321.8,24.1,321.7,24.1c0.1,0,0.1,0,0.2,0
		C321.8,24.1,321.8,24.1,321.7,24.1z M318.7,12.5c0.1-0.1,0.2-0.4,0.3-0.4c0.1,0,0.3,0.2,0.4,0.3c-0.1,0.1-0.2,0.4-0.3,0.4
		C319,12.8,318.9,12.6,318.7,12.5z M321.4,17.5c-0.5,1.2-1.8,0.7-2.6,1.1c-0.5,0.2-0.9,0.6-1.4,0.9c-0.5,0-0.9,0-1.4,0
		c-0.1,0-0.2,0-0.3,0.1c-0.3-0.2-0.6-0.3-0.9-0.5c0.5-0.6,0.9-1.2,1.4-1.6c0.5,0.3,1,0.5,1.6,0.7c0.8,0.3,1.7-0.4,1.5-1.2
		c0-0.1-0.1-0.3-0.1-0.4C320.1,16.5,320.9,16.4,321.4,17.5z M279.2,5.3c-0.1,0.1-0.3,0.3-0.4,0.3c-0.1,0-0.2-0.2-0.4-0.3
		c0.1-0.1,0.2-0.1,0.2-0.2C278.9,5.2,279,5.2,279.2,5.3z M307.9,25.8c-0.1,0-0.2,0.1-0.3,0.1c0.1,0.2,0.1,0.4,0.2,0.6
		c0.2-0.1,0.5-0.1,0.5-0.2c0.1-0.1-0.1-0.3-0.1-0.5c0.1,0,0.2,0,0.2,0c0.5-1,0.7-2,1.3-2.4c0.1-0.1,0.1-0.1,0.2-0.2c0,0,0,0,0,0
		c0.1,0.3,0.4,0.5,0.6,0.8c0.2,0.3,0.3,0.5,0.4,0.6c-0.3,0.8-0.6,1.5-0.9,2.3c0.8,0.4,1.4,0.7,2,1c-0.3,0.4-1,0-1.1,0.8
		c1.3,0.3,2.7,0.3,3.8,1.2c-0.7,0.3-1.5,0.4-1.8,0.8c-0.6,1-1.4,2-2,3c0,0,0-0.1,0-0.1c-0.4-2.1-1.7-3-3.8-2.4c0-0.1,0-0.2-0.1-0.4
		c-0.1,0-0.2,0.1-0.3,0.1c0,0.1,0,0.2,0,0.3c0,0,0.1,0,0.2,0c-1.4,0.4-2.8,0.6-4.2,0.6c-1,0-2-0.1-2.8-1.1c1.7-1.3,3.9,0.5,5.8-1.1
		c-0.6-0.4-1-0.8-1.4-0.8c-1.5,0-3.1,0.1-4.6,0.3c-0.7,0.1-1.2,0.9-1.8,1.4c-0.5-0.4-0.9-0.9-1.5-1.2c0.7-0.1,1.4-0.4,2.1-0.6
		c0.6-1.2,1.4-2.3,2.7-3c0.1,0.1,0.3,0.1,0.4,0.2c0.9,0.8,1.8,1.6,2.8,2.3c0.3,0.2,1.1,0,1.5-0.3c0.1,0,0.1-0.2,0.1-0.5
		c0.5,0.1,1,0.3,1.5,0.4c0.1,0,0.4-0.3,0.4-0.4c0-0.2-0.1-0.5-0.2-0.5c-0.6-0.1-1.2-0.2-1.7-0.3c0,0.1,0,0.2,0,0.2
		c0,0,0-0.1-0.1-0.1c-0.4-0.4-0.9-0.9-1.4-1.1C305.7,25.6,306.8,25.7,307.9,25.8z M307.5,10.1C307.6,10,307.6,10,307.5,10.1
		c0.1-0.1,0.1-0.1,0.1-0.1c0,0,0,0,0,0.1C307.7,10,307.6,10,307.5,10.1C307.6,10.1,307.6,10.1,307.5,10.1c0,0.2-0.1,0.4-0.1,0.6
		c-0.2,0.6-0.5,1.1-0.9,1.8c0.2,0,0.4-0.1,0.5-0.1c-0.1,0.2-0.2,0.3-0.3,0.5c-1-1.1-0.4-2-0.1-2.9C307,9.9,307.3,10,307.5,10.1z
		 M319.1,7.2c-0.2,0.2-0.4,0.4-0.7,0.5c0-0.2-0.1-0.5-0.1-0.7c0.1,0,0.1-0.1,0.2-0.1C318.7,6.8,318.9,7,319.1,7.2z M367.6,6.9
		c0,0.2-0.1,0.5-0.1,0.7c-0.2-0.1-0.4-0.3-0.7-0.5c0.2-0.2,0.4-0.4,0.6-0.3C367.5,6.9,367.6,6.9,367.6,6.9z M379.3,12.8
		c-0.2-0.2-0.2-0.3-0.3-0.5c0.2,0,0.3,0.1,0.5,0.1c-0.4-0.6-0.7-1.2-0.9-1.8c0-0.2,0-0.4-0.1-0.6c0,0,0,0-0.1,0c0,0,0,0-0.1,0
		c0,0,0,0,0-0.1c0,0,0.1,0,0.1,0.1c0,0,0,0,0,0c0.3-0.1,0.6-0.1,0.9-0.2C379.7,10.8,380.3,11.7,379.3,12.8z M381.5,25.8
		c-0.5,0.2-1,0.7-1.4,1.1c0,0,0,0.1-0.1,0.1c0-0.1,0-0.2,0-0.2c-0.6,0.1-1.2,0.1-1.7,0.3c-0.1,0-0.2,0.4-0.2,0.5
		c0,0.2,0.3,0.4,0.4,0.4c0.5-0.1,1-0.2,1.5-0.4c0,0.2,0,0.4,0.1,0.5c0.4,0.2,1.2,0.5,1.5,0.3c1-0.7,1.9-1.5,2.8-2.3
		c0.1,0,0.3-0.1,0.4-0.2c1.3,0.7,2.1,1.8,2.7,3c0.7,0.2,1.4,0.5,2.1,0.6c-0.5,0.3-1,0.8-1.5,1.2c-0.6-0.5-1.2-1.3-1.8-1.4
		c-1.5-0.3-3.1-0.3-4.6-0.3c-0.4,0-0.8,0.5-1.4,0.8c1.9,1.6,4.1-0.2,5.8,1.1c-0.8,1-1.8,1.1-2.8,1.1c-1.4-0.1-2.8-0.2-4.2-0.6
		c0.1,0,0.1,0,0.2,0c0.1,0,0-0.2,0-0.3c-0.1,0-0.2-0.1-0.3-0.1c0,0.1,0,0.2-0.1,0.4c-2.1-0.6-3.4,0.3-3.8,2.4c0,0,0,0.1,0,0.1
		c-0.6-1-1.5-1.9-2-3c-0.2-0.5-1.1-0.5-1.8-0.8c1.1-0.9,2.5-0.9,3.8-1.2c-0.1-0.8-0.7-0.4-1.1-0.8c0.6-0.3,1.1-0.6,2-1
		c-0.3-0.8-0.5-1.5-0.9-2.3c0.1-0.1,0.2-0.4,0.4-0.6c0.2-0.3,0.5-0.5,0.6-0.8c0,0,0,0,0,0c0.1,0.1,0.1,0.1,0.2,0.2
		c0.6,0.4,0.8,1.4,1.3,2.4c0.1,0,0.1,0,0.2,0c-0.1,0.2-0.2,0.3-0.1,0.5c0.1,0.1,0.3,0.2,0.5,0.2c0.1-0.2,0.1-0.4,0.2-0.6
		c-0.1,0-0.2-0.1-0.3-0.1C379.2,25.7,380.3,25.6,381.5,25.8z M407.5,5.2c-0.1,0.1-0.2,0.3-0.4,0.3c-0.1,0-0.3-0.2-0.4-0.3
		c0.2-0.1,0.3-0.2,0.5-0.2C407.4,5.1,407.5,5.2,407.5,5.2z M445.8,33.3c0.2-0.1,0.3-0.1,0.5-0.2c0,0,0.1,0.2,0.1,0.2
		c-0.2,0.1-0.3,0.1-0.5,0.2C445.9,33.5,445.8,33.4,445.8,33.3z M436.7,26c-0.2,0.2-0.4,0.6-0.5,0.6c-0.2,0-0.4-0.3-0.6-0.5
		c0.2-0.2,0.4-0.5,0.4-0.5C436.2,25.7,436.4,25.9,436.7,26z M441.8,31.1c1.1-0.6,2.1-0.1,3.2,0C443.7,32.1,443.7,32.1,441.8,31.1
		C441.8,31.1,441.8,31.1,441.8,31.1C441.7,31.1,441.7,31.1,441.8,31.1c-0.9,0.7-1.4,1.8-2.6,2.1c-0.3-1-0.4-2.2-2.1-1.8
		C438.8,30.4,439,30.4,441.8,31.1C441.7,31.1,441.7,31.1,441.8,31.1C441.7,31.1,441.8,31.1,441.8,31.1z M445.6,20
		c0.1,0.5-0.7,1.1-1.1,0.7c-0.6-0.5-1-1-1.5-1.5c0,0,0,0,0,0c0,0.2,0,0.4,0,0.6c0,0.2-0.2,0.3-0.3,0.4c0-0.2-0.1-0.4-0.1-0.5
		c0.1-0.2,0.2-0.3,0.4-0.4c0,0,0-0.1,0-0.1c0,0,0,0,0,0.1c0,0,0,0,0,0c0.5-0.4,1-0.7,1.8-1.2C445,18.7,445.4,19.3,445.6,20z
		 M448.4,26.1c-1.2,0.6-2.3,0.8-3.5,0.4c-0.1-0.3-0.2-0.4-0.1-0.5c0.4-1,0.8-2,1.3-3.1C447.6,23.5,448,24.7,448.4,26.1z M456.3,33.6
		c0.2,0,0.4-0.1,0.5-0.1c0.1,0,0.1,0.3,0.1,0.5c-0.2,0-0.4,0.2-0.5,0.1C456.4,34.1,456.3,33.8,456.3,33.6z M456.7,31.4
		c0.7-0.2,1.4-0.3,2.1-0.5c0,0.2,0.1,0.5,0.1,0.7c-0.7,0-1.4,0.1-2.1,0.1C456.7,31.6,456.7,31.5,456.7,31.4z M458.4,11.4
		c-0.1,0.1-0.2,0.3-0.3,0.4c-0.1-0.1-0.2-0.3-0.3-0.4c0.2-0.1,0.3-0.1,0.5-0.2C458.3,11.2,458.4,11.4,458.4,11.4z M458.7,26.3
		c-0.4,0.2-1,0.2-1.5,0.3c-0.1-0.2-0.2-0.4-0.3-0.6c0.4-0.3,0.8-0.7,1.2-0.8c0.2-0.1,0.7,0.1,0.8,0.3
		C459.1,25.7,458.9,26.2,458.7,26.3z M482.4,18.3c0.7,0,1.2,0.1,1.7,0.1c0.4,0,0.9-0.1,1.5-0.2c0,1.4-1.5,1.9-1.4,3.9
		c-1.2-1-1.8-1.3-2-1.9C481.9,19.7,482.2,19,482.4,18.3z M481.8,15.3c0.1-1.3,0.3-2.6,0.5-3.8c0.3,0.1,0.7,0.1,0.7,0.2
		c0.4,1.1,0.8,2.3,1,3.4c0,0.3-0.6,0.9-1,1.1C482.6,16.4,481.8,15.7,481.8,15.3z M480.5,12.5l0.2-0.1l0,0.2L480.5,12.5z M471.3,25.7
		c0.1,0,0.2,0,0.2-0.1c0,0.1-0.1,0.2-0.1,0.4C471.3,25.9,471.3,25.8,471.3,25.7z M469.5,11.3c0-0.2,0.1-0.4,0.2-0.6
		c0.2,0.2,0.4,0.4,0.4,0.6c0,0.1-0.2,0.3-0.3,0.5C469.7,11.7,469.5,11.5,469.5,11.3z M467.4,26.8c0-0.2,0.3-0.4,0.5-0.7
		c0.2,0.2,0.6,0.4,0.6,0.6c-0.1,0.5-0.3,0.9-0.7,1.8C467.6,27.6,467.4,27.2,467.4,26.8z M465.6,9.1c-1.9-0.3-1.9-0.3-1.7-2.2
		c0.7,0.7,1.2,1.3,1.7,1.9C465.7,8.9,465.6,9,465.6,9.1z M464.5,18c-0.1,0-0.2-0.1-0.4-0.1c0.2,0,0.2-0.1,0.3-0.1
		C464.5,17.8,464.5,17.9,464.5,18z M463.6,26.4c0.2-0.2,0.4-0.4,0.5-0.6c0.1,0.2,0.2,0.3,0.2,0.5c0,0.2-0.2,0.3-0.3,0.5
		C463.9,26.7,463.8,26.6,463.6,26.4z M461.2,24.7c-0.1,0-0.3,0.1-0.4,0.1c0-0.1,0-0.2,0-0.3c0.1,0,0.2-0.1,0.2-0.1
		C461.1,24.5,461.2,24.6,461.2,24.7z M460.9,26.4c0.8,0.4,1.1,0.8,0.6,1.6C460.7,27.7,460.7,27.2,460.9,26.4z M461.6,33.8
		c0,0.2-0.1,0.3-0.1,0.5c-0.3-0.2-0.5-0.4-1.3-0.9C461,33.6,461.3,33.7,461.6,33.8z M482.5,36c0,0.1-0.1,0.1-0.1,0.2
		c-0.1,0-0.2-0.1-0.2-0.1c0-0.1,0.1-0.2,0.1-0.2C482.4,35.8,482.4,35.9,482.5,36z M511.5,42.2c0,0.1,0,0.2,0,0.2
		c-0.1-0.1-0.2-0.2-0.3-0.3C511.3,42.2,511.4,42.2,511.5,42.2z M514.1,42.3l0,0.2l-0.2-0.1L514.1,42.3z M523.3,37
		c-0.1,0-0.2-0.1-0.4-0.1c0.1,0,0.2-0.1,0.3-0.1C523.2,36.8,523.3,36.9,523.3,37z M533.1,37.6l-0.1,0.2l-0.2-0.1L533.1,37.6z
		 M525,9.5c-0.5,1.2-1.6,1.4-2.7,1.5c-0.4,0-0.9-0.5-1.3-0.8c0,0,0,0,0,0c-0.1,0-0.1,0-0.2,0c-0.1,0.1-0.2,0.1-0.3,0.2
		c0.1,0,0.1-0.1,0.2-0.2c0,0,0.1,0,0.1,0c0,0,0.1,0,0.1-0.1c0,0,0,0,0.1,0C522.1,8.8,523.3,8.7,525,9.5z M526.9,12.9l0-0.2l0.2,0.2
		L526.9,12.9z M526.7,8.5c0-0.1,0.1-0.1,0.2-0.2c0.1,0.1,0.1,0.3,0.2,0.4c-0.1,0-0.2,0-0.3,0C526.8,8.7,526.7,8.6,526.7,8.5z
		 M527.3,4.8c0,0.1,0,0.2,0,0.3c-0.1,0-0.2,0.1-0.3,0.1c-0.1,0-0.1-0.1-0.2-0.2C527,4.9,527.1,4.8,527.3,4.8z M535.1,16.3
		c0,0-0.1,0.2-0.2,0.2c-0.2,0-0.3-0.1-0.5-0.2c0.1-0.2,0.2-0.3,0.3-0.5C534.9,16.1,535,16.2,535.1,16.3z M535.8,18.8l-0.1,0.2
		l-0.1-0.2L535.8,18.8z M541.3,6.4c-0.1,0.1-0.2,0.3-0.3,0.4c-0.1-0.1-0.3-0.2-0.4-0.3c0.1-0.1,0.2-0.3,0.3-0.4
		C541,6.2,541.2,6.3,541.3,6.4z M543.4,19.5c-0.9,0.8-1.7,0.9-2.6,0.5c0-0.7,0-1.3,0.1-2.4C541.9,18.4,542.7,18.9,543.4,19.5z
		 M543.6,12.6c0.4-0.1,0.9-0.2,1.4-0.3C544.7,13.5,544.1,12.8,543.6,12.6z M544.9,10.1l0.2-0.1l0,0.2L544.9,10.1z M545.3,8.6
		c-0.1,0-0.2,0.1-0.3,0.1c-0.1,0-0.1-0.1-0.2-0.2c0.1,0,0.3-0.1,0.4-0.1C545.3,8.4,545.3,8.5,545.3,8.6z M549.2,35.2
		c-1.2,0.1-2,0.5-2.5-0.7c-0.2-0.5-1.3-0.6-2.2-0.9c1.1-0.8,2.3-0.6,3.6-0.4C548.4,33.7,548.7,34.4,549.2,35.2z M554.5,47.9
		c-0.4,0.2-0.9,0.4-1.4,0.6c0,0-0.2-0.3-0.3-0.5c0.2-0.6,1-0.9,1.5-0.6C554.5,47.5,554.5,47.9,554.5,47.9z M558.2,44.5
		c0,0.1-0.2,0.4-0.3,0.4c-0.5,0.1-1,0.1-1.5,0.1c0-0.2-0.1-0.4-0.1-0.6c0.5-0.1,1-0.2,1.5-0.3C557.9,44.1,558.1,44.3,558.2,44.5z
		 M561.7,28.4c0,0.2-0.1,0.3-0.1,0.5c-0.2-0.1-0.4-0.2-0.5-0.3c0.1-0.1,0.3-0.3,0.4-0.4C561.5,28.2,561.7,28.3,561.7,28.4z
		 M563.8,34.4c-0.4,0-0.7,0-1,0c0.2-0.1,0.5-0.1,0.7-0.2C563.6,34.1,563.7,34.2,563.8,34.4z M581.6,37.1c-0.9,0-1.8-0.1-2.7-0.1
		c0-0.1,0-0.2,0-0.3c0.9,0,1.8,0.1,2.7,0.1C581.6,36.9,581.6,37,581.6,37.1z M578.4,35c1.6-0.2,2.4,0.3,4.1,0.5
		C580.7,35.9,579.8,35.9,578.4,35z M575.7,44.8c1.9,0.7,3.8,0.2,5.3,1.2c-2.2,0.7-3.4,0.8-4.9,0.3c-0.2-0.1-0.4-0.3-0.4-0.4
		C575.6,45.7,575.7,45.5,575.7,44.8z M573.8,45.7c-0.1,0.2-0.3,0.5-0.4,0.8c-0.4-0.2-0.6-0.4-0.9-0.5c0.2-0.2,0.3-0.6,0.5-0.6
		C573.2,45.3,573.5,45.5,573.8,45.7z M576.1,35c-0.6,0.1-1.2,0.2-1.8,0.2c-0.1,0-0.3-0.3-0.3-0.5c0-0.2,0.2-0.4,0.4-0.5
		c0.5,0,1,0,1.6,0C576,34.6,576,34.8,576.1,35z M580.6,20.8l-0.2,0l0.1-0.1L580.6,20.8z M582.6,29.7c-0.2,0.6-0.4,0.9-0.6,1.4
		c-1.8-0.4-3.4-0.7-5.4-1.2C578.8,29,580.6,29.1,582.6,29.7z M588.9,30.5l-0.1,0.2l-0.1-0.2L588.9,30.5z M592.1,31.2
		c-0.1,0.1-0.2,0.4-0.3,0.4c-0.2,0-0.4-0.1-0.6-0.2c0.1-0.1,0.2-0.3,0.3-0.4C591.8,31,591.9,31.1,592.1,31.2z M597.5,31
		c0,0-0.4,0.1-0.5,0.1c-0.1-0.5-0.1-1-0.2-1.5c0-0.1,0.1-0.2,0.3-0.4c0.2,0.2,0.4,0.2,0.4,0.3C597.5,30,597.5,30.5,597.5,31z
		 M597.8,36.2c-1.1,0.4-1.7,0.6-2.2,0.9c-0.5,0.2-0.9,0.6-1.5,1c-1.1-1.6-2.5-2.5-4.6-2.5c1.8-1.1,1.8-1.2,2.6-0.8
		c0.8,0.3,1.6,0.8,2.4,1C595.4,36,596.3,36,597.8,36.2z M601.7,37.2c0,0.1-0.1,0.2-0.1,0.2c-0.1,0-0.2-0.1-0.2-0.1
		c0-0.1,0.1-0.2,0.1-0.2C601.5,37.1,601.6,37.1,601.7,37.2z M645.2,4.4c0.2-0.1,0.4-0.2,0.5-0.2c0,0.1,0.1,0.3,0.1,0.3
		c-0.2,0.1-0.4,0.2-0.5,0.2C645.3,4.6,645.3,4.5,645.2,4.4z M651.3,15.5c0-0.1,0-0.2,0-0.3c0.1,0,0.2-0.1,0.3-0.1
		c0.1,0,0.1,0.1,0.2,0.2C651.5,15.4,651.4,15.4,651.3,15.5z M636.3,12.9c0-0.9,0.7-1.6,1.7-1.8c0.4-0.1,0.9-0.1,1.3-0.1
		c1.2,0,2.4-0.1,3.6-0.1c-0.2,1.1-0.2,1.1-2.1,0.7c-0.3,0.5-0.7,1-1.1,1.5c-0.4,0.4-0.8,0.7-1.3,1c-0.6,0.4-1.2,0.6-1,1.6
		c0.6,0.6,1.3,0.6,2,0.2c0.7-0.4,1.2,0,1.8,0.3c0,0,0,0,0,0c0,0,0.1-0.1,0,0c0,0,0,0-0.1,0c-0.5,0.3-0.9,0.7-1.4,0.8
		c-2.4,0.7-3,0.2-3.3-2.4C636.4,14,636.3,13.4,636.3,12.9z M631.1,12.5c0.5-0.5,1.2-0.7,1.9-1c0.7,1.1,0.1,1.6-0.4,2.2
		c-0.4,0.5-1.2,0.6-1.4,0.2C631.1,13.5,630.9,12.7,631.1,12.5z M626.2,13.2c0.2-0.2,0.4-0.4,0.6-0.6c0.1,0.2,0.3,0.4,0.3,0.5
		c0,0.2-0.3,0.3-0.4,0.4C626.5,13.5,626.4,13.4,626.2,13.2z M621.9,22.5c0.9-0.9,1.4-1.4,2-2C624,22.5,624,22.5,621.9,22.5z
		 M616.7,14.8c-0.1,0.1-0.3,0.2-0.4,0.2c-0.2,0-0.4-0.1-0.6-0.1c0-0.1,0-0.1,0-0.2C616,14.7,616.4,14.8,616.7,14.8z M613.9,23.3
		c1.1-2.5,1.1-2.5,1.9-3.1c0.1-0.1,0.4,0.2,0.6,0.3l0,0c0,0,0,0,0,0c0.1,0.2,0.2,0.3,0.3,0.5c-0.1-0.1-0.2-0.3-0.3-0.4
		C615.6,21.3,614.9,22.1,613.9,23.3z M611.6,22.6c0-0.1,0.1-0.2,0.1-0.2c0,0,0.1,0.1,0.2,0.1c0,0.1-0.1,0.2-0.1,0.2
		C611.8,22.7,611.6,22.6,611.6,22.6z M608.7,23.3c0.1,0,0.2-0.1,0.2,0c0.1,0,0.1,0.1,0.1,0.2c-0.1,0-0.3,0.1-0.4,0.1
		C608.7,23.4,608.7,23.4,608.7,23.3z M606.8,5.1l0.2-0.1l0,0.2L606.8,5.1z"/>
	<path class="st0" d="M646.4,23.4c1.1,0.1,1.2,0.2,0.9,2.3c-0.6-0.5-0.9-0.8-1.2-1c-0.4-0.2-0.8-0.2-1.2-0.3
		c0.1-0.4,0.2-0.7,0.3-0.7C645.5,23.5,645.9,23.4,646.4,23.4z"/>
	<path class="st0" d="M646.3,28.4c0,1.2-0.1,2.4-0.1,3.5c-0.5,0.5-1,0.5-1.2,0c-0.5-1.9-0.5-1.9-1.7-2.9c0.5-0.9,1.1-1.8,1.6-2.6
		C645.9,26.7,646.3,27.4,646.3,28.4z"/>
	<path class="st0" d="M330.7,12.2C330.7,12.2,330.7,12.3,330.7,12.2C330.7,12.3,330.7,12.3,330.7,12.2
		C330.7,12.3,330.7,12.2,330.7,12.2C330.7,12.2,330.7,12.2,330.7,12.2z"/>
	<path class="st0" d="M328,25.7c-0.1,0-0.1,0-0.2,0c0-0.1,0.1-0.2,0.1-0.4C328,25.6,328,25.7,328,25.7z"/>
	<path class="st0" d="M360.1,24.8c-0.1,0-0.1,0-0.2-0.1c0-0.1,0-0.2,0.1-0.2c0,0,0.1,0,0.2,0.1C360.2,24.7,360.1,24.8,360.1,24.8z"
		/>
	<path class="st0" d="M310.7,10.1c0.1,0,0.1,0.2,0.1,0.3c-0.1,0-0.2,0.1-0.3,0.1c-0.1,0-0.1-0.2-0.1-0.3
		C310.5,10.2,310.6,10.1,310.7,10.1z"/>
	<path class="st0" d="M650,25.8c-0.8-0.6-1.3-1.4-1.6-2.6c0.7-0.4,1.5-0.7,2.1-1C651.6,22.8,651.4,23.9,650,25.8z"/>
	<polygon class="st0" points="529.2,28.6 529.3,28.4 529.4,28.7 	"/>
	<path class="st0" d="M333.4,8.9c0.4-0.1,0.9-0.3,1.6-0.5c0,0.4,0.1,0.8,0,1.2c-0.1,0.3-0.4,0.5-0.5,0.8c-0.8,1.7-2.1,2.1-3.8,1.7
		c0.3-1.5,0.6-3,1-4.6C332.2,8,332.7,8.4,333.4,8.9z"/>
	<path class="st0" d="M466,42.5c-1.7,1.1-1.9,1-4.5-0.4C463,42,464.4,41.7,466,42.5z"/>
	<path class="st0" d="M493.1,10.5c0.1,0,0.3,0.2,0.5,0.3c-0.2,0.2-0.3,0.4-0.6,0.6c0,0-0.3-0.2-0.6-0.4
		C492.6,10.8,492.8,10.6,493.1,10.5z"/>
	<path class="st0" d="M535.7,33.2c0.2,0.1,0.3,0.3,0.4,0.5c0,0.2-0.2,0.5-0.3,0.5c-0.7,0-1.4-0.1-2.2-0.2
		C534.3,32.9,534.9,32.9,535.7,33.2z"/>
	<path class="st0" d="M524.8,31c-1.2-0.1-1.4-0.9-1.5-1.7c0-0.9,0.2-1.7,0.3-2.8c1.5-0.3,2.6-1.1,2.9-2.7c0-0.2,0.5-0.6,0.6-0.6
		c0.4,0.1,0.8,0.4,1,0.7c0.2,0.5,0.4,1.1,0.4,1.6c-0.1,1.2-0.2,2.4-0.4,3.8C526.5,29.2,525.4,29.7,524.8,31z"/>
	<path class="st0" d="M485.6,26.6c0.3,0,0.8,0.4,0.9,0.7c0.2,0.9,0.3,1.9,0.4,3.1c-0.6,0.1-1.3,0.1-2.3,0.2
		c-0.1-1.2-0.1-1.9-0.1-2.7c0-0.2,0-0.5,0.1-0.6C484.9,27,485.2,26.6,485.6,26.6z"/>
	<polygon class="st0" points="480.1,32.9 480,33.2 479.8,33 	"/>
	<path class="st0" d="M484.5,33.3c-0.4-0.1-0.8-0.2-1.1-0.3c0-0.1,0.1-0.2,0.1-0.3c0.3,0,0.6-0.1,0.9-0.1c0.1,0,0.2,0.1,0.5,0.2
		C484.6,33.2,484.6,33.3,484.5,33.3z"/>
	<path class="st0" d="M348.3,4.6C348.3,4.6,348.3,4.6,348.3,4.6c-0.2,0.2-0.4,0.5-0.7,0.7c-0.3-0.3-0.6-0.4-0.6-0.6
		c-0.1-0.3,0.1-0.6,0.5-0.8c0.5-0.4,0.8-0.6,1-0.6c0.2,0,0.5,0.5,0.5,0.7C348.9,4.3,348.6,4.6,348.3,4.6z"/>
	<path class="st0" d="M494.8,27.9c-0.3-0.1-0.4-0.7-0.5-1c0.4-0.2,0.7-0.5,1.1-0.5c0.9,0.1,1.7,0.3,2.7,0.5c0.3,1.3,0.6,2.3,1,3.6
		c-0.7,0.1-1.3,0.2-1.9,0.2c-0.2,0-0.7-0.4-0.7-0.6C496.9,28.6,495.9,28.2,494.8,27.9z"/>
	<path class="st0" d="M500.4,5.4L500.4,5.4C500.3,5.5,500.3,5.4,500.4,5.4C500.4,5.4,500.4,5.4,500.4,5.4z"/>
	<path class="st0" d="M498.5,8.4c0.5,2.3-0.5,4.6,0.3,6.9c0.2,0.5,0,1.1,0.1,1.9c-0.7,0.1-1.3,0.1-2.1,0.2c0.1-1,0.3-1.7,0.3-2.4
		c0-0.8-0.3-1.5-0.4-2.3c0-0.4-0.1-1,0.1-1.3c0.5-0.9,0.1-1.7-0.2-2.5c-0.4-1-0.8-2.1-0.5-3.4c0.9-0.5,2-1.1,3.1-1.7
		c0.4,0.6,0.8,1.2,1.1,1.7c-0.4,0.5-0.9,0.9-1.3,1.4C498.8,7.3,498.4,7.9,498.5,8.4z"/>
	<path class="st0" d="M497.6,20.1c0.1,0.1,0.3,0.3,0.3,0.4c0,0.3-0.1,0.5-0.2,0.8c-0.1-0.3-0.3-0.5-0.4-0.8
		C497.3,20.5,497.5,20.3,497.6,20.1z"/>
	<path class="st0" d="M503.2,6.4c-1.1,0.5-1.5,0.3-2.8-0.9c1.4-0.5,2.7-1,4.1-1.4C504.7,5.7,504.7,5.7,503.2,6.4z"/>
	<path class="st0" d="M497.7,21.4C497.7,21.4,497.7,21.4,497.7,21.4C497.7,21.4,497.7,21.4,497.7,21.4
		C497.7,21.4,497.7,21.4,497.7,21.4C497.7,21.4,497.7,21.4,497.7,21.4L497.7,21.4z"/>
	<path class="st0" d="M498.4,22.1c0.1,0.2,0.1,0.6,0,0.9c0,0.1-0.4,0.2-0.5,0.1c-0.2-0.2-0.4-0.5-0.4-0.8c0-0.3,0.1-0.6,0.2-0.8
		C497.9,21.6,498.2,21.8,498.4,22.1z"/>
	<path class="st0" d="M500.4,5.4C500.4,5.4,500.4,5.4,500.4,5.4C500.4,5.4,500.4,5.4,500.4,5.4L500.4,5.4z"/>
	<path class="st0" d="M502,33.4c-1.3-0.1-2.1-0.1-2.9-0.1C500,32.8,500.9,32.6,502,33.4z"/>
	<path class="st0" d="M503.8,27.8c0.8,0.5-0.1,1.4-0.3,2.1c-0.2,0.4-0.7,0.8-1.2,0.9c-0.3,0.1-0.7-0.2-1.5-0.5
		c0.7-0.5,1.2-0.9,1.7-1.2C503,28.7,502.5,27,503.8,27.8z"/>
	<path class="st0" d="M505.4,18.9c0,0-0.1,0-0.1,0c0.1,0,0.2-0.1,0.3-0.1C505.6,18.8,505.5,18.9,505.4,18.9z"/>
	<path class="st0" d="M500.7,12.4c-0.1-0.1-0.4-0.2-0.4-0.3c0-0.3,0.1-0.5,0.2-0.8c0.2,0.1,0.5,0.3,0.5,0.3
		C501,11.9,500.8,12.1,500.7,12.4z"/>
	<path class="st0" d="M501.5,15.3c0.1,0.5,0.2,0.9,0.2,1.4c0,0.1-0.1,0.2-0.3,0.4c-0.2-0.3-0.3-0.3-0.4-0.4c-0.2-0.5-0.4-1,0.1-1.4
		C501.3,15.3,501.5,15.3,501.5,15.3z"/>
	<path class="st0" d="M501.3,8.3c-0.1-0.1-0.3-0.1-0.4-0.2c0-0.1,0-0.2,0-0.3c0.1,0,0.3,0.1,0.4,0.1C501.4,8.1,501.3,8.2,501.3,8.3z
		"/>
	<path class="st0" d="M352.3,19.6c-0.1,0-0.2,0-0.3,0c0-0.1,0-0.1,0-0.2C352.2,19.5,352.2,19.5,352.3,19.6z"/>
	<path class="st0" d="M347.4,14.6c0.1,0.1,0.2,0.2,0.3,0.3c0,0-0.1,0.1-0.2,0.2c-0.1-0.1-0.2-0.2-0.4-0.3
		C347.3,14.7,347.3,14.7,347.4,14.6z"/>
	<path class="st0" d="M341,9.8C341,9.8,341,9.8,341,9.8C341.2,9.8,341.2,9.8,341,9.8z"/>
	<path class="st0" d="M345.9,5.1c0.2-0.1,0.3-0.2,0.5-0.3c0.2,0.1,0.3,0.2,0.5,0.3c-0.2,0.2-0.4,0.3-0.6,0.5
		C346.1,5.4,346,5.3,345.9,5.1z"/>
	<polygon class="st0" points="349,16.6 348.7,16.8 348.8,16.5 	"/>
	<path class="st0" d="M349.3,22.2c-0.1-0.1-0.1-0.3-0.2-0.5c0.2,0,0.4,0,0.5,0c0,0.2,0,0.3-0.1,0.5
		C349.6,22.2,349.3,22.2,349.3,22.2z"/>
	<path class="st0" d="M341,9.8C341,9.8,341,9.8,341,9.8C341.1,9.7,341.2,9.7,341,9.8z"/>
	<path class="st0" d="M652.5,22.1c-0.1-0.3-0.1-0.6-0.1-1c0.7-0.7,1.4-0.6,2.1-0.2c0.1,0.2,0.2,0.4,0.2,0.6c0,0.6,0.2,1.4-0.8,1.6
		C653.2,23.3,652.7,22.8,652.5,22.1z"/>
	<path class="st0" d="M349.7,15.2c-0.4-0.1-0.5-0.7-0.8-1.1c0.2-0.2,0.3-0.3,0.5-0.5c0.9,0.2,1.8,0.5,2.9,0.8
		C351.5,15.3,350.6,15.5,349.7,15.2z"/>
	<path class="st0" d="M493.5,24.3c-0.1,0.1-0.4,0.3-0.4,0.4c-0.1,1.1-0.1,2.2-0.2,3.5c-0.5,0-0.6,0-0.7,0c-0.4-1-0.9-1.9-1.3-2.9
		c-0.6-1.4-0.1-2.7,1.4-3.3c0.6-0.3,1.3-0.4,1.9-0.5c0.6-0.1,1.4,0.6,1.3,1.2c0,0.7-0.2,1.5-0.4,2.5C494.5,24.8,494,24.6,493.5,24.3
		z"/>
	<path class="st0" d="M350,4c0.2-0.3,0.5-0.5,0.8-0.8c0.2,0.2,0.6,0.4,0.5,0.6c0,0.3-0.3,0.6-0.6,1.1C350.3,4.4,349.9,4.1,350,4z"/>
	<path class="st0" d="M386.3,2.7c0-0.1,0.2-0.1,0.2-0.1c0.1,0.1,0.1,0.1,0.2,0.2c-0.1,0.1-0.3,0.1-0.4,0.2
		C386.4,2.9,386.3,2.8,386.3,2.7z"/>
	<path class="st0" d="M503.1,18.6c0.1-2.5,0.6-2.6,3.1-1.5c0,0.7-1.5,0.7-1,1.7c0.1,0,0.1,0,0.2,0c0,0-0.1,0-0.1,0.1l0-0.1
		c0,0,0,0,0,0l0,0c0,0,0,0,0,0c0,0.2,0,0.5,0,0.7c-0.6,0.2-1.2,0.3-2,0.5C503.2,19.5,503.1,19,503.1,18.6z"/>
	<path class="st0" d="M493.6,29.7c0,0.2,0.1,0.3,0.1,0.4c0,0.1-0.1,0.2-0.2,0.2c-1.2,0.2-2.4,0.3-3.5,0.5c-1.3-0.6-1.6-1.7-2.1-3
		c0.9-0.8,1.7-0.2,1.9,0.2C490.7,29.7,492.1,29.9,493.6,29.7z"/>
	<path class="st0" d="M354.8,24.9c-0.1,0.1-0.2,0.1-0.3,0.1c-0.2-0.1-0.3-0.1-0.5-0.2c0.1-0.1,0.3-0.3,0.4-0.3
		C354.5,24.5,354.6,24.7,354.8,24.9z"/>
	<path class="st0" d="M665.7,17.2c-0.1,0-0.3-0.4-0.2-0.5c0.2-0.2,0.4-0.4,0.7-0.4c0.1,0,0.3,0.1,0.5,0.2c0,0.2-0.1,0.4-0.2,0.5
		C666.3,17.2,666,17.2,665.7,17.2z"/>
	<path class="st0" d="M666.7,16.5C666.7,16.5,666.7,16.5,666.7,16.5C666.7,16.5,666.7,16.5,666.7,16.5
		C666.7,16.5,666.7,16.5,666.7,16.5C666.7,16.5,666.7,16.5,666.7,16.5z"/>
	<path class="st0" d="M686,16.3V9.8c-0.2-0.2-0.3-0.3-0.5-0.5c-0.8,0.6-1.6,0.9-2.7,0.8c-2.2-0.2-4.4,0.1-6.4,1.4
		c-0.8,0.5-1.9,0.4-2.9,0.5c-0.2,0-0.4-0.2-0.6-0.3c-0.2-0.5-0.4-1-0.5-1.5c-1-0.4-1.3,1.2-2.4,0.5c-0.8-0.4-1.9-0.3-2.8-0.4
		c-0.1,2.2,0.2,4.2-0.4,6.1c0.8,1.3,1.9,2,3.5,1.8c1.4-0.2,2.9-0.2,4.3-0.5c0.8-0.2,1.5-0.8,2.3-1.3c-0.3-1.1-0.6-1.9-0.8-2.9
		c0.6,0.1,1.1,0.2,1.6,0.3c0,0.9,0,1.7,0.2,2.4c0.1,0.3,0.7,0.8,0.9,0.8c1.5-0.6,3.2,0.5,4.8-0.5C684.2,16.2,685.1,16,686,16.3z
		 M669.5,14.6c-0.2,0.2-0.4,0.4-0.7,0.6c-0.1-0.1-0.2-0.3-0.3-0.5c0.2-0.2,0.5-0.3,0.7-0.5C669.4,14.3,669.6,14.5,669.5,14.6z
		 M674.6,15.1c-0.6,0.1-1.1,0.2-1.6,0.2c-0.6-0.5-0.2-0.9,0.1-1.1C673.9,13.7,674.2,14.3,674.6,15.1z M685.4,13.2l-0.2,0l0.1-0.2
		L685.4,13.2z"/>
	<path class="st0" d="M686,0v0.6c-0.1-0.1-0.3-0.3-0.5-0.5C685.7,0,685.8,0,686,0z"/>
	<path class="st0" d="M679.6,0.2c0.8,0,1.6-0.1,2.5-0.1C681.4,1.5,680.5,0.7,679.6,0.2z"/>
	<path class="st0" d="M659.5,24.5c-0.5,1.2-1,2.4-1.4,3.6c-0.1,0.3,0.1,0.6,0.3,0.9c0.2,0.4,0.5,0.8-0.2,1.3c-1.2-0.1-2.6-0.2-4-0.3
		c-0.1,0-0.1-0.3-0.2-0.5c0.2-0.1,0.4-0.3,0.6-0.3c0.3,0,0.7,0.1,1,0.1c0.8-0.1,1.3-0.6,1-1.3c-0.3-0.8-0.6-1.7-1.1-2.4
		c-0.2-0.2-0.8-0.2-1.2-0.3c0,0,0,0,0,0c0,0,0,0,0.1,0c0,0,0,0-0.1,0c0,0.2,0,0.4-0.1,0.5c-0.1,0.1-0.3,0.2-0.4,0.2
		c0-0.2,0-0.4,0.1-0.5c0.1-0.1,0.3-0.2,0.5-0.2c0,0,0,0,0,0c-0.3-0.1-0.7-0.3-0.9-0.2c-1.3,1-2.5,2.1-3.7,3.3
		c-0.1,0.1,0.1,0.8,0.3,1.1c0.3,0.3,0.8,0.3,1.5,0.5c-1.3,0.3-2.2,0.5-3.1,0.8c-0.2,0.1-0.5,0.5-0.5,0.8c0,0.3,0.2,0.7,0.4,0.8
		c0.4,0.2,0.8,0.3,1.2,0.3c0.7,0,1.3-0.2,2-0.3c2.4-0.5,4.9-1.1,7.2-0.6c2.5,0.6,4.5-0.1,7.1-0.5c-0.4-1-0.8-1.8-1-2.6
		c-0.3-1.2,1.1-1.6,1.4-2.5c0-0.1,0.1-0.2,0.1-0.3c-0.1-0.3-0.2-0.6-0.2-0.8c-0.7,0.1-1,1.2-1.8,0.7c-0.1-0.2-0.2-0.4-0.1-0.6
		c0-1.6,2.1-1.6,2.5-2.9c-0.9-0.8-2-1-2.7-2c-0.5-0.8-1.3-0.5-1.8,0.4C661.4,22,661.4,24,659.5,24.5z M660.7,26.2
		c0.2-0.4,0.3-0.7,0.4-0.7c0.6-0.2,0.7,0.3,0.8,0.8c0,0.2-0.2,0.4-0.2,0.6C661.4,26.6,661,26.4,660.7,26.2z M652.5,28
		c0,0.1-0.1,0.2-0.1,0.2c-0.1,0-0.2-0.1-0.2-0.1c0-0.1,0.1-0.2,0.1-0.2C652.4,27.9,652.4,28,652.5,28z"/>
	<path class="st0" d="M683.2,5.3c-0.2-0.1-0.5-0.4-0.5-0.6c-0.1-0.3,0.1-0.6,0.2-1c0.4,0.2,0.7,0.3,0.8,0.5c0.1,0.2,0.1,0.6,0.1,0.8
		C683.6,5.2,683.2,5.3,683.2,5.3z"/>
	<path class="st0" d="M658.7,22.2c0,0.1-0.3,0.3-0.4,0.3c-0.2-0.1-0.3-0.3-0.4-0.4c-0.1-0.2-0.1-0.4-0.1-0.6
		c0.2,0.1,0.4,0.1,0.5,0.2C658.5,21.9,658.6,22,658.7,22.2z"/>
	<path class="st0" d="M657.8,21.5C657.8,21.5,657.8,21.5,657.8,21.5L657.8,21.5C657.8,21.4,657.8,21.5,657.8,21.5z"/>
	<path class="st0" d="M675.9,10.9c-0.4,0.1-0.8,0.1-1.2,0.1c-0.1,0-0.1-0.3-0.2-0.5c0.3-0.4,1.1-0.4,1.4,0.1
		C675.9,10.7,675.9,10.9,675.9,10.9z"/>
	<path class="st0" d="M659.2,18.1c0-0.1,0.1-0.2,0.1-0.3c0.1,0,0.2,0,0.3,0c0,0.2-0.1,0.3-0.1,0.5C659.4,18.2,659.3,18.1,659.2,18.1
		z"/>
	<path class="st0" d="M505.2,19.6C505.2,19.6,505.2,19.6,505.2,19.6C505.2,19.6,505.2,19.6,505.2,19.6
		C505.2,19.6,505.2,19.6,505.2,19.6C505.2,19.6,505.2,19.6,505.2,19.6z"/>
	<path class="st0" d="M657.8,21.4L657.8,21.4C657.8,21.4,657.8,21.4,657.8,21.4C657.8,21.4,657.8,21.4,657.8,21.4z"/>
	<path class="st0" d="M658.5,20.2c0.3,0.7-0.4,0.9-0.7,1.2c-0.6-0.2-1.1-0.5-1.9-0.8C657.3,19.9,657.3,19.9,658.5,20.2z"/>
	<path class="st0" d="M656.9,24.4c-0.3-0.3-0.6-0.6-0.9-0.9c0-0.1,0.2-0.3,0.3-0.5c0.3,0.2,0.6,0.5,0.9,0.7
		C657.3,23.8,657.1,24.1,656.9,24.4z"/>
	<path class="st0" d="M515.4,7.4c-1.3-0.2-2.5-0.3-3.9,0.3c-0.8,0.3-1.9-0.1-3.1-0.2c0.2,1.3,0.3,2.4,0.4,3.5
		c-0.8,0.1-1.5,0.2-2.1,0.4c-1.1-1.1,0.1-2,0.1-2.9c0-1,0.2-1.9,0.4-2.9c1.4,0,2.6,0,3.7,0.2c3.3,0.4,3.3,0.4,5.9-1.6
		c0.1,0.6,0.3,1,0.3,1.5C517.2,6.9,516.6,7.6,515.4,7.4z"/>
	<path class="st0" d="M509.4,26.1C509.4,26.1,509.4,26.1,509.4,26.1c0-0.1,0.1-0.1,0.1-0.2C509.5,26,509.5,26.1,509.4,26.1z"/>
	<path class="st0" d="M509.2,26.3c-0.1,0.1-0.1,0.1-0.2,0.2C509.1,26.4,509.1,26.3,509.2,26.3c0-0.1,0.1-0.1,0.2-0.2
		C509.3,26.2,509.3,26.2,509.2,26.3z"/>
	<path class="st0" d="M506.3,15c0-0.1,0-0.2-0.1-0.3c0.1,0,0.2,0,0.2-0.1C506.4,14.8,506.4,14.9,506.3,15z"/>
	<path class="st0" d="M508.2,30.3c-0.2,0.1-0.3,0.3-0.4,0.4c-0.9,0-1.7,0-2.9,0.1c0.4-0.7,0.6-1.1,0.8-1.5c0.4,0.1,0.6,0.1,0.8,0.2
		C507,29.7,507.5,30,508.2,30.3z"/>
	<path class="st0" d="M503.1,25.4c0.2-2.2,1.3-3.9,2.1-5.8c0.2,0.4,0.5,0.7,0.6,1.1C506.6,23.7,506.5,23.8,503.1,25.4z"/>
	<path class="st0" d="M517.7,27.9c0.3,0.9,0.6,1.8,0.9,3c-1.3,0-2.4-0.1-3.4-0.1c-0.9-2-0.3-4-0.8-6c0.6-0.5,1.2-0.9,1.6-1.4
		c0.3-0.4,0.4-1.3,0.2-1.5c-1.5-1.2-0.5-2.6,0-4c0.2,0.4,0.5,0.7,0.7,1.1c1.3,0.1,1.7-1.8,3.2-1.3c-0.3,1.2-0.7,2.5-1,3.7
		c-0.3,0.2-0.6,0.3-1,0.5c0,0.9-0.1,1.8-0.1,2.7c0.1,1.3-1.4,1.3-1.8,2.5c0.4,0.1,0.7,0.2,1.1,0.4C517.4,27.5,517.6,27.7,517.7,27.9
		z"/>
	<path class="st0" d="M514.7,13.2c0.1-0.1,0.6-0.2,0.8-0.1c0.2,0.1,0.2,0.6,0.1,0.8c-0.4,0.5-0.9,1-1.7,1.8
		C514.3,14.6,514.5,13.9,514.7,13.2z"/>
	<path class="st0" d="M511,28.9c-0.4,0-0.7-0.3-1.2-0.5c0.3-0.4,0.5-0.7,0.7-0.8c0.6-0.2,1.2,0.2,1.1,0.7
		C511.6,28.5,511.2,28.9,511,28.9z"/>
	<path class="st0" d="M679.9,3.9c-0.2-0.1-0.3-0.3-0.5-0.4c-1.2-0.6-1.7-0.4-2.3,0.8c-0.2,0.4-0.3,0.8-0.5,1.4
		c-0.6-0.7-1-1.2-1.4-1.6c-0.4-0.4-0.9-0.8-1.8-1.4c2.9-0.6,5.3-0.6,7.8-0.3C681.1,4,680.8,4.3,679.9,3.9z"/>
	<path class="st0" d="M658.6,1.9c0.2-0.3,0.2-0.6,0.3-0.6c0.3,0,0.6,0,0.9,0.1c-0.1,0.2-0.1,0.5-0.3,0.5C659.3,2,659,2,658.6,1.9z"
		/>
	<path class="st0" d="M509.7,23.1c0.1-0.2,0.2-0.5,0.3-0.8c0-0.1,0.3-0.1,0.3-0.1c0.2,0.3,0.3,0.7,0.4,1.1c0,0.1-0.2,0.4-0.4,0.4
		c-0.1,0-0.3-0.1-0.5-0.2C509.7,23.4,509.8,23.3,509.7,23.1z"/>
	<path class="st0" d="M511.1,17.1c0-0.1,0.1-0.2,0.1-0.2c0,0,0.1,0.1,0.2,0.1c0,0.1-0.1,0.1-0.1,0.2
		C511.3,17.2,511.2,17.1,511.1,17.1z"/>
</g>
</svg>
