<?xml version="1.0" encoding="utf-8"?>
<!-- Generator: Adobe Illustrator 25.2.1, SVG Export Plug-In . SVG Version: 6.00 Build 0)  -->
<svg version="1.1" id="Layer_1" xmlns="http://www.w3.org/2000/svg" xmlns:xlink="http://www.w3.org/1999/xlink" x="0px" y="0px"
	 viewBox="0 0 60 40" style="enable-background:new 0 0 60 40;" xml:space="preserve">
<path d="M30,0C13.5,0,0,13.5,0,30c0,3.1,0.5,6.2,1.4,9.1C1.6,39.6,2.1,40,2.6,40h54.8c0.5,0,1-0.4,1.2-0.9c0.9-3,1.4-6,1.4-9.1
	C60,13.5,46.5,0,30,0z M53.8,31.2h3.7c-0.1,2.1-0.4,4.2-1,6.2H3.5c-0.6-2-0.9-4.1-1-6.2h3.7c0.7,0,1.3-0.6,1.3-1.3s-0.6-1.3-1.3-1.3
	H2.6c0.2-4.1,1.3-8,3-11.4l3.2,1.8c0.2,0.1,0.4,0.2,0.6,0.2c0.4,0,0.9-0.2,1.1-0.6c0.3-0.6,0.1-1.4-0.5-1.7l-3.2-1.8
	c2.1-3.3,5-6.2,8.3-8.3l1.8,3.2c0.2,0.4,0.7,0.6,1.1,0.6c0.2,0,0.4-0.1,0.6-0.2c0.6-0.3,0.8-1.1,0.5-1.7l-1.8-3.2
	c3.4-1.8,7.3-2.9,11.4-3v3.7c0,0.7,0.6,1.3,1.3,1.3s1.3-0.6,1.3-1.3V2.6c4.1,0.2,8,1.3,11.4,3l-1.8,3.2c-0.3,0.6-0.1,1.4,0.5,1.7
	c0.2,0.1,0.4,0.2,0.6,0.2c0.4,0,0.9-0.2,1.1-0.6l1.8-3.2c3.3,2.1,6.2,5,8.3,8.3L49.9,17c-0.6,0.3-0.8,1.1-0.5,1.7
	c0.2,0.4,0.7,0.6,1.1,0.6c0.2,0,0.4-0.1,0.6-0.2l3.2-1.8c1.8,3.4,2.9,7.3,3,11.4h-3.7c-0.7,0-1.3,0.6-1.3,1.3
	C52.5,30.7,53.1,31.2,53.8,31.2z"/>
</svg>
